<svg width="147" height="28" viewBox="0 0 147 28" fill="none" xmlns="http://www.w3.org/2000/svg">
<path d="M12.0715 6.31157L11.7011 7.41807C10.2218 7.41329 11.8923 6.56011 10.7738 7.0811C10.4106 7.22927 7.91556 7.45152 7.60249 7.67139C7.47344 7.7622 5.84596 8.70141 5.8125 8.85436C5.99413 8.00357 6.63699 5.87662 6.7302 5.56833C6.77561 5.41777 6.82579 5.25765 6.87837 5.0808C7.62639 2.07438 9.96365 0 12.6188 0H25.0364C24.36 3.71859 21.1242 6.29962 18.4667 6.29962L12.0739 6.31157H12.0715Z" fill="#454545"/>
<path d="M18.1556 14.3964C19.3768 14.3247 19.5752 13.9447 20.4331 13.3425C20.5311 13.2732 21.7547 12.0209 21.9124 11.8345L21.2887 14.5661C21.2337 14.805 21.1716 15.044 21.1023 15.2782C20.3232 17.9477 17.9047 19.7831 15.1229 19.7831H9.74338C8.50783 19.7831 8.10634 20.2037 7.74069 21.1596L7.15996 23.3631C6.34025 26.0206 2.77938 28.0424 0 27.9994L2.70291 19.1832C3.52262 16.5257 6.54338 14.4083 9.32516 14.4513H17.3168C17.6107 14.4418 17.8903 14.4227 18.1556 14.3964Z" fill="#454545"/>
<path d="M5.87101 8.58426C5.24965 10.6419 6.79588 12.7282 8.94674 12.7282H12.9856H14.257C14.8711 12.7282 15.287 13.3496 15.0552 13.9184C14.9333 14.2171 14.6561 14.4203 14.3406 14.4489H18.2862C19.2876 14.3629 20.0762 14.0785 20.6976 13.6412C21.0083 13.4237 21.2879 13.1584 21.534 12.8453C21.6296 12.7259 21.7515 12.4152 21.8232 12.181C22.4422 10.1592 20.9724 8.11585 18.8837 8.03699H13.5424C12.9282 8.03699 12.3355 7.41563 12.5697 6.84685C12.7012 6.529 13.0095 6.31869 13.3512 6.31152H9.5657C8.85353 6.31152 7.78288 6.68195 7.16391 7.11929C6.6501 7.48255 6.07893 7.90077 5.8734 8.58187L5.87101 8.58426Z" fill="#222222"/>
<path d="M137.543 12.8097H143.632C143.492 12.0134 143.164 11.3655 142.648 10.8658C142.149 10.3662 141.501 10.1164 140.705 10.1164C139.861 10.1164 139.167 10.3662 138.62 10.8658C138.089 11.3498 137.73 11.9978 137.543 12.8097ZM143.164 16.3228H146.208C146.13 16.6194 145.974 16.9551 145.74 17.3299C145.521 17.689 145.201 18.0949 144.78 18.5477C144.374 18.9849 143.812 19.3518 143.093 19.6485C142.375 19.9295 141.579 20.0701 140.705 20.0701C138.94 20.0701 137.48 19.4924 136.325 18.3369C135.185 17.1659 134.615 15.6748 134.615 13.8636C134.615 12.0525 135.185 10.5692 136.325 9.41376C137.48 8.24274 138.94 7.65723 140.705 7.65723C142.344 7.65723 143.726 8.23493 144.85 9.39034C145.99 10.5301 146.56 11.9432 146.56 13.6294C146.56 13.77 146.536 14.051 146.489 14.4726L146.443 14.8005H137.543C137.668 15.6436 138.019 16.3228 138.597 16.838C139.174 17.3533 139.877 17.6109 140.705 17.6109C141.329 17.6109 141.86 17.4782 142.297 17.2128C142.734 16.9317 143.023 16.6351 143.164 16.3228Z" fill="#222222"/>
<path d="M129.939 15.386H132.866C132.757 15.9168 132.578 16.4321 132.328 16.9317C132.094 17.4314 131.766 17.931 131.344 18.4306C130.923 18.9146 130.353 19.3128 129.634 19.6251C128.932 19.9217 128.136 20.0701 127.246 20.0701C125.481 20.0701 124.021 19.4924 122.866 18.3369C121.726 17.1659 121.156 15.6748 121.156 13.8636C121.156 12.0525 121.726 10.5692 122.866 9.41376C124.021 8.24274 125.481 7.65723 127.246 7.65723C128.136 7.65723 128.932 7.81336 129.634 8.12564C130.353 8.42229 130.923 8.81263 131.344 9.29666C131.766 9.78068 132.094 10.2647 132.328 10.7487C132.578 11.2327 132.757 11.7246 132.866 12.2242H129.939C129.471 10.9751 128.573 10.3506 127.246 10.3506C126.356 10.3506 125.606 10.6785 124.997 11.3342C124.388 11.99 124.084 12.8331 124.084 13.8636C124.084 14.8941 124.388 15.7373 124.997 16.393C125.606 17.0488 126.356 17.3767 127.246 17.3767C128.62 17.3767 129.517 16.7131 129.939 15.386Z" fill="#222222"/>
<path d="M116.348 19.8359L116.113 18.6648H115.996C115.793 18.9146 115.52 19.1489 115.177 19.3674C114.427 19.8359 113.568 20.0701 112.6 20.0701C111.289 20.0701 110.235 19.7187 109.439 19.0161C108.658 18.3135 108.268 17.4548 108.268 16.4399C108.268 15.222 108.689 14.254 109.532 13.5358C110.375 12.8175 111.593 12.4584 113.186 12.4584H115.879V12.2242C115.879 11.5528 115.684 11.0142 115.294 10.6082C114.919 10.2022 114.412 9.99927 113.771 9.99927C113.162 9.99927 112.671 10.1554 112.296 10.4677C111.937 10.78 111.726 11.1313 111.664 11.5216H108.736C108.877 10.4443 109.376 9.53086 110.235 8.78141C111.094 8.03195 112.272 7.65723 113.771 7.65723C115.27 7.65723 116.48 8.09441 117.402 8.96877C118.338 9.84313 118.807 10.9283 118.807 12.2242V19.8359H116.348ZM115.879 15.0347V14.6834H113.42C111.937 14.6834 111.195 15.1908 111.195 16.2057C111.195 16.6741 111.359 17.0488 111.687 17.3299C112.015 17.5953 112.475 17.728 113.069 17.728C113.959 17.728 114.646 17.4938 115.13 17.0254C115.629 16.5414 115.879 15.8778 115.879 15.0347Z" fill="#222222"/>
<path d="M101.706 19.8355V10.7016H99.7148V7.89112H101.706V6.13459C101.706 5.24461 101.971 4.53419 102.502 4.00333C103.033 3.47246 103.743 3.20703 104.633 3.20703H107.209V5.78328H105.453C105.219 5.78328 105.023 5.86135 104.867 6.01748C104.711 6.17362 104.633 6.36879 104.633 6.60299V7.89112H107.209V10.7016H104.633V19.8355H101.706Z" fill="#222222"/>
<path d="M91.6309 19.836V7.8916H94.09L94.3242 8.94552H94.4413C94.5818 8.75816 94.7536 8.58641 94.9566 8.43027C95.4406 8.07116 95.9715 7.8916 96.5492 7.8916H98.8912V10.7021H96.7834C95.3001 10.7021 94.5584 11.4437 94.5584 12.927V19.836H91.6309Z" fill="#222222"/>
<path d="M80.1697 12.8097H86.2591C86.1185 12.0134 85.7906 11.3655 85.2754 10.8658C84.7758 10.3662 84.1278 10.1164 83.3315 10.1164C82.4884 10.1164 81.7936 10.3662 81.2471 10.8658C80.7162 11.3498 80.3571 11.9978 80.1697 12.8097ZM85.7906 16.3228H88.8353C88.7572 16.6194 88.6011 16.9551 88.3669 17.3299C88.1483 17.689 87.8282 18.0949 87.4067 18.5477C87.0007 18.9849 86.4386 19.3518 85.7204 19.6485C85.0022 19.9295 84.2059 20.0701 83.3315 20.0701C81.5672 20.0701 80.1073 19.4924 78.9519 18.3369C77.8121 17.1659 77.2422 15.6748 77.2422 13.8636C77.2422 12.0525 77.8121 10.5692 78.9519 9.41376C80.1073 8.24274 81.5672 7.65723 83.3315 7.65723C84.9709 7.65723 86.3527 8.23493 87.4769 9.39034C88.6167 10.5301 89.1866 11.9432 89.1866 13.6294C89.1866 13.77 89.1632 14.051 89.1163 14.4726L89.0695 14.8005H80.1697C80.2947 15.6436 80.646 16.3228 81.2237 16.838C81.8014 17.3533 82.504 17.6109 83.3315 17.6109C83.956 17.6109 84.4869 17.4782 84.9241 17.2128C85.3613 16.9317 85.6501 16.6351 85.7906 16.3228Z" fill="#222222"/>
<path d="M71.5839 16.4633C72.146 15.8388 72.427 14.9722 72.427 13.8636C72.427 12.7551 72.146 11.8963 71.5839 11.2874C71.0218 10.6628 70.288 10.3506 69.3824 10.3506C68.4768 10.3506 67.7429 10.6628 67.1808 11.2874C66.6188 11.8963 66.3377 12.7551 66.3377 13.8636C66.3377 14.9722 66.6188 15.8388 67.1808 16.4633C67.7429 17.0722 68.4768 17.3767 69.3824 17.3767C70.288 17.3767 71.0218 17.0722 71.5839 16.4633ZM63.4102 24.5199V7.89143H66.1035L66.3377 9.17956H66.4548C66.6734 8.89851 66.9466 8.64869 67.2745 8.4301C68.0552 7.91485 68.914 7.65723 69.8508 7.65723C71.4121 7.65723 72.7159 8.23493 73.762 9.39034C74.8237 10.5301 75.3546 12.0212 75.3546 13.8636C75.3546 15.706 74.8237 17.205 73.762 18.3604C72.7159 19.5002 71.4121 20.0701 69.8508 20.0701C68.8203 20.0701 67.9459 19.8359 67.2277 19.3674C66.9154 19.1489 66.6578 18.9146 66.4548 18.6648H66.3377V24.5199H63.4102Z" fill="#222222"/>
<path d="M49.3633 15.0348V7.8916H52.2908V14.8006C52.2908 15.5657 52.525 16.1902 52.9934 16.6743C53.4775 17.1427 54.102 17.3769 54.8671 17.3769C55.6322 17.3769 56.2489 17.1427 56.7173 16.6743C57.2013 16.1902 57.4433 15.5657 57.4433 14.8006V7.8916H60.3709V19.836H57.6775L57.4433 18.665H57.3262C57.1389 18.8992 56.8734 19.1334 56.5299 19.3676C55.8117 19.836 54.9842 20.0702 54.0474 20.0702C52.689 20.0702 51.5648 19.6096 50.6748 18.6884C49.8005 17.7516 49.3633 16.5337 49.3633 15.0348Z" fill="#222222"/>
<path d="M33.8008 14.683H36.8454C36.8454 15.4169 37.1733 16.0336 37.8291 16.5333C38.5005 17.0173 39.3827 17.2593 40.4756 17.2593C41.5842 17.2593 42.4039 17.0719 42.9348 16.6972C43.4812 16.3069 43.7545 15.7916 43.7545 15.1515C43.7545 14.0585 42.8567 13.3559 41.0611 13.0436L38.2507 12.5752C35.5183 12.1224 34.1521 10.6391 34.1521 8.12532C34.1521 6.7201 34.6986 5.54908 35.7915 4.61226C36.8845 3.67544 38.3678 3.20703 40.2414 3.20703C42.2712 3.20703 43.8325 3.70667 44.9255 4.70594C46.0184 5.70521 46.5649 7.00114 46.5649 8.59373H43.5203C43.5203 7.85989 43.2314 7.25096 42.6537 6.76694C42.076 6.2673 41.2719 6.01748 40.2414 6.01748C39.2265 6.01748 38.4614 6.21265 37.9462 6.603C37.4466 6.97772 37.1967 7.48516 37.1967 8.12532C37.1967 8.62496 37.3607 9.03091 37.6886 9.34319C38.0165 9.63984 38.5942 9.85844 39.4217 9.99896L41.9979 10.4674C43.6686 10.764 44.8865 11.2871 45.6515 12.0365C46.4166 12.7704 46.7991 13.8087 46.7991 15.1515C46.7991 16.6191 46.2526 17.8058 45.1597 18.7114C44.0667 19.6169 42.5054 20.0697 40.4756 20.0697C38.4146 20.0697 36.783 19.5701 35.5807 18.5708C34.3941 17.556 33.8008 16.26 33.8008 14.683Z" fill="#222222"/>
</svg>
