<svg width="143" height="29" viewBox="0 0 143 29" fill="none" xmlns="http://www.w3.org/2000/svg">
<g clip-path="url(#clip0_91_733)">
<path opacity="0.7" fill-rule="evenodd" clip-rule="evenodd" d="M11.9545 7.35599C12.0844 7.03433 12.3919 6.82379 12.7339 6.82202H8.73955C7.35424 6.82202 6.1314 7.74107 5.72602 9.08685C5.10614 11.1448 6.62122 13.2256 8.73955 13.2256H11.9473L11.947 13.2265H14.647C15.2495 13.2265 15.6595 13.8475 15.4308 14.4139C15.3107 14.7111 15.0389 14.9135 14.7285 14.9439H18.6459C20.031 14.9439 21.2537 14.025 21.6591 12.6795C22.2667 10.6623 20.823 8.62308 18.7704 8.54346H12.7382C12.1356 8.54346 11.7257 7.92237 11.9545 7.35599Z" fill="white"/>
<path d="M12.4758 6.82306L12.5163 6.82322H17.8025C21.0228 6.82322 23.857 4.27511 24.7597 0.568237H13.3453C10.1282 0.568237 7.29467 3.12253 6.38907 6.82322C6.08779 7.83155 5.90267 8.39625 5.64844 9.40639C6.87232 6.80071 9.61736 6.81165 12.4758 6.82306Z" fill="white"/>
<path d="M21.6982 12.5338C20.8701 14.1053 19.2237 14.8555 16.5085 14.943H9.62586C6.37974 14.8933 3.49053 17.0254 2.53307 20.1769L0.0458984 28.3636C3.29203 28.4133 6.18123 26.2813 7.13869 23.1296L7.5068 21.9182C7.9346 20.7845 8.4033 20.2852 9.84437 20.2852H14.0595C17.3057 20.2852 20.1627 18.109 21.0726 14.943H21.0718L21.6982 12.5338Z" fill="white"/>
<path d="M33.6836 16.9493C33.7758 18.2373 34.9284 20.6026 38.5245 20.6026C41.5903 20.6026 43.0887 18.6588 43.0887 16.6682C43.0887 14.9586 41.9361 13.5065 39.5618 13.0147L38.0404 12.7102C37.5332 12.6166 37.1414 12.3356 37.1414 11.8438C37.1414 11.2348 37.7177 10.8367 38.3862 10.8367C39.4464 10.8367 39.9306 11.4924 40.0229 12.2652L42.9275 11.7266C42.8122 10.3683 41.6596 8.2605 38.3402 8.2605C35.7813 8.2605 33.9371 9.99355 33.9371 12.1248C33.9371 13.7641 34.9054 15.1693 37.3489 15.708L38.6628 16.0124C39.5158 16.1998 39.7925 16.5511 39.7925 16.9726C39.7925 17.4879 39.3543 17.9797 38.4553 17.9797C37.2565 17.9797 36.7034 17.2069 36.6574 16.4106L33.6836 16.9493Z" fill="white"/>
<path d="M52.677 20.2512H56.0427C56.0196 20.064 55.9273 19.2208 55.9273 18.167V8.61169H52.4234V15.2395C52.4234 16.4104 51.6858 17.2302 50.5102 17.2302C49.2654 17.2302 48.666 16.3402 48.666 15.2161V8.61169H45.1621V15.9654C45.1621 18.448 46.7296 20.5088 49.519 20.5088C50.6715 20.5088 51.9854 20.0874 52.5848 19.0803C52.5848 19.3847 52.6309 20.0406 52.677 20.2512Z" fill="white"/>
<path d="M62.5126 24.7011V19.3379C63.0428 19.9937 64.1492 20.5089 65.6246 20.5089C68.8288 20.5089 71.0879 17.9563 71.0879 14.3964C71.0879 10.9069 69.0824 8.33069 65.7629 8.33069C64.1263 8.33069 62.8815 9.05671 62.3974 9.80614V8.61173H59.0088V24.7011H62.5126ZM67.6532 14.4198C67.6532 16.3637 66.4316 17.3238 65.0482 17.3238C63.6883 17.3238 62.4665 16.3403 62.4665 14.4198C62.4665 12.476 63.6883 11.5392 65.0482 11.5392C66.4316 11.5392 67.6532 12.476 67.6532 14.4198Z" fill="white"/>
<path d="M76.0004 13.0381C76.0695 12.1716 76.8071 11.0709 78.2825 11.0709C79.9422 11.0709 80.5415 12.1482 80.5878 13.0381H76.0004ZM80.8412 16.0592C80.5186 16.9726 79.8039 17.5815 78.5361 17.5815C77.176 17.5815 76.0004 16.6449 75.9312 15.3332H83.9071C83.9301 15.263 83.9762 14.7243 83.9762 14.2325C83.9762 10.4854 81.7863 8.2605 78.2365 8.2605C75.2625 8.2605 72.5195 10.6493 72.5195 14.3965C72.5195 18.3076 75.3319 20.6026 78.49 20.6026C81.3945 20.6026 83.2157 18.9166 83.7688 16.9025L80.8412 16.0592Z" fill="white"/>
<path d="M93.5101 8.61174C93.2794 8.54148 92.9337 8.49463 92.5879 8.49463C91.6658 8.49463 90.2135 8.86935 89.6142 10.1808V8.61174H86.2256V20.2513H89.7295V15.1692C89.7295 12.8507 90.9973 12.0076 92.4034 12.0076C92.7492 12.0076 93.1181 12.031 93.5101 12.1247V8.61174Z" fill="white"/>
<path d="M102.542 11.6094V8.61168H100.053V7.72173C100.053 6.43363 100.928 6.15261 101.551 6.15261C102.104 6.15261 102.404 6.22286 102.588 6.2697V3.36565C102.265 3.20171 101.643 3.10803 100.928 3.10803C98.1391 3.10803 96.5485 4.93477 96.5485 7.60463V8.61168H94.7275V11.6094H96.5485V20.2512H100.053V11.6094H102.542Z" fill="white"/>
<path d="M106.955 14.4199C106.955 12.4058 108.084 11.3519 109.583 11.3519C111.012 11.3519 112.187 12.4058 112.187 14.4199C112.187 16.3872 110.989 17.5114 109.583 17.5114C108.13 17.5114 106.955 16.3403 106.955 14.4199ZM112.211 18.8697C112.211 19.3614 112.257 19.9937 112.302 20.2514H115.669C115.645 19.9937 115.576 19.2443 115.576 18.1672V8.6118H112.187V9.94673C111.957 9.40806 111.058 8.2605 109.006 8.2605C105.618 8.2605 103.428 10.9303 103.428 14.3965C103.428 17.9797 105.756 20.5793 109.121 20.5793C110.551 20.5793 111.703 19.8767 112.211 18.7526V18.8697Z" fill="white"/>
<path d="M123.876 11.5393C125.237 11.5393 125.929 12.3824 126.182 13.2723L129.317 12.3121C128.81 10.2277 126.966 8.2605 123.808 8.2605C120.442 8.2605 117.768 10.8132 117.768 14.4433C117.768 18.05 120.511 20.6026 123.923 20.6026C126.989 20.6026 128.88 18.5885 129.386 16.5511L126.297 15.5908C126.044 16.4574 125.283 17.3239 123.923 17.3239C122.471 17.3239 121.249 16.2935 121.249 14.4433C121.249 12.5697 122.425 11.5393 123.876 11.5393Z" fill="white"/>
<path d="M134.058 13.0381C134.127 12.1716 134.865 11.0709 136.34 11.0709C137.999 11.0709 138.6 12.1482 138.645 13.0381H134.058ZM138.899 16.0592C138.576 16.9726 137.862 17.5815 136.594 17.5815C135.233 17.5815 134.058 16.6449 133.989 15.3332H141.965C141.988 15.263 142.034 14.7243 142.034 14.2325C142.034 10.4854 139.844 8.2605 136.294 8.2605C133.32 8.2605 130.577 10.6493 130.577 14.3965C130.577 18.3076 133.389 20.6026 136.547 20.6026C139.452 20.6026 141.274 18.9166 141.826 16.9025L138.899 16.0592Z" fill="white"/>
</g>
<defs>
<clipPath id="clip0_91_733">
<rect width="142.218" height="28" fill="white" transform="translate(0 0.5)"/>
</clipPath>
</defs>
</svg>
