<svg width="143" height="28" viewBox="0 0 143 28" fill="none" xmlns="http://www.w3.org/2000/svg">
<path opacity="0.7" fill-rule="evenodd" clip-rule="evenodd" d="M11.9545 6.85575C12.0844 6.53408 12.3919 6.32355 12.7339 6.32178H8.73955C7.35424 6.32178 6.1314 7.24083 5.72602 8.58661C5.10614 10.6445 6.62122 12.7253 8.73955 12.7253H11.9473L11.947 12.7262H14.647C15.2495 12.7262 15.6595 13.3473 15.4308 13.9136C15.3107 14.2109 15.0389 14.4133 14.7285 14.4436H18.6459C20.031 14.4436 21.2537 13.5248 21.6591 12.1792C22.2667 10.162 20.823 8.12284 18.7704 8.04322H12.7382C12.1356 8.04322 11.7257 7.42212 11.9545 6.85575Z" fill="black"/>
<path d="M12.4758 6.3227L12.5163 6.32285H17.8025C21.0228 6.32285 23.857 3.77474 24.7597 0.0678711H13.3453C10.1282 0.0678711 7.29467 2.62216 6.38907 6.32285C6.08779 7.33118 5.90267 7.89588 5.64844 8.90602C6.87232 6.30034 9.61736 6.31129 12.4758 6.3227Z" fill="black"/>
<path d="M21.6982 12.0337C20.8701 13.6052 19.2237 14.3553 16.5085 14.4429H9.62586C6.37974 14.3932 3.49053 16.5252 2.53307 19.6768L0.0458984 27.8634C3.29203 27.9132 6.18123 25.7811 7.13869 22.6295L7.5068 21.4181C7.9346 20.2844 8.4033 19.7851 9.84437 19.7851H14.0595C17.3057 19.7851 20.1627 17.6088 21.0726 14.4429H21.0718L21.6982 12.0337Z" fill="black"/>
<path d="M33.6836 16.449C33.7758 17.737 34.9284 20.1024 38.5245 20.1024C41.5903 20.1024 43.0887 18.1586 43.0887 16.1679C43.0887 14.4583 41.9361 13.0063 39.5618 12.5145L38.0404 12.2099C37.5332 12.1163 37.1414 11.8353 37.1414 11.3435C37.1414 10.7346 37.7177 10.3364 38.3862 10.3364C39.4464 10.3364 39.9306 10.9922 40.0229 11.765L42.9275 11.2264C42.8122 9.86802 41.6596 7.76025 38.3402 7.76025C35.7813 7.76025 33.9371 9.49331 33.9371 11.6245C33.9371 13.2639 34.9054 14.669 37.3489 15.2077L38.6628 15.5122C39.5158 15.6995 39.7925 16.0509 39.7925 16.4723C39.7925 16.9876 39.3543 17.4794 38.4553 17.4794C37.2565 17.4794 36.7034 16.7066 36.6574 15.9103L33.6836 16.449Z" fill="black"/>
<path d="M52.677 19.7509H56.0427C56.0196 19.5636 55.9273 18.7205 55.9273 17.6667V8.11133H52.4234V14.7391C52.4234 15.9101 51.6858 16.7298 50.5102 16.7298C49.2654 16.7298 48.666 15.8398 48.666 14.7157V8.11133H45.1621V15.4651C45.1621 17.9477 46.7296 20.0085 49.519 20.0085C50.6715 20.0085 51.9854 19.587 52.5848 18.5799C52.5848 18.8843 52.6309 19.5402 52.677 19.7509Z" fill="black"/>
<path d="M62.5126 24.2009V18.8378C63.0428 19.4936 64.1492 20.0088 65.6246 20.0088C68.8288 20.0088 71.0879 17.4562 71.0879 13.8963C71.0879 10.4067 69.0824 7.83057 65.7629 7.83057C64.1263 7.83057 62.8815 8.55658 62.3974 9.30602V8.11161H59.0088V24.2009H62.5126ZM67.6532 13.9197C67.6532 15.8635 66.4316 16.8237 65.0482 16.8237C63.6883 16.8237 62.4665 15.8401 62.4665 13.9197C62.4665 11.9759 63.6883 11.0391 65.0482 11.0391C66.4316 11.0391 67.6532 11.9759 67.6532 13.9197Z" fill="black"/>
<path d="M76.0004 12.5379C76.0695 11.6713 76.8071 10.5706 78.2825 10.5706C79.9422 10.5706 80.5415 11.6479 80.5878 12.5379H76.0004ZM80.8412 15.559C80.5186 16.4723 79.8039 17.0813 78.5361 17.0813C77.176 17.0813 76.0004 16.1446 75.9312 14.833H83.9071C83.9301 14.7628 83.9762 14.224 83.9762 13.7323C83.9762 9.98512 81.7863 7.76025 78.2365 7.76025C75.2625 7.76025 72.5195 10.1491 72.5195 13.8962C72.5195 17.8074 75.3319 20.1024 78.49 20.1024C81.3945 20.1024 83.2157 18.4163 83.7688 16.4022L80.8412 15.559Z" fill="black"/>
<path d="M93.5101 8.11125C93.2794 8.04099 92.9337 7.99414 92.5879 7.99414C91.6658 7.99414 90.2135 8.36886 89.6142 9.68036V8.11125H86.2256V19.7508H89.7295V14.6687C89.7295 12.3502 90.9973 11.5071 92.4034 11.5071C92.7492 11.5071 93.1181 11.5305 93.5101 11.6242V8.11125Z" fill="black"/>
<path d="M102.542 11.1093V8.11156H100.053V7.2216C100.053 5.9335 100.928 5.65248 101.551 5.65248C102.104 5.65248 102.404 5.72274 102.588 5.76958V2.86553C102.265 2.70159 101.643 2.60791 100.928 2.60791C98.1391 2.60791 96.5485 4.43465 96.5485 7.10451V8.11156H94.7275V11.1093H96.5485V19.7511H100.053V11.1093H102.542Z" fill="black"/>
<path d="M106.955 13.9196C106.955 11.9055 108.084 10.8517 109.583 10.8517C111.012 10.8517 112.187 11.9055 112.187 13.9196C112.187 15.8869 110.989 17.0112 109.583 17.0112C108.13 17.0112 106.955 15.8401 106.955 13.9196ZM112.211 18.3695C112.211 18.8612 112.257 19.4934 112.302 19.7511H115.669C115.645 19.4934 115.576 18.744 115.576 17.6669V8.11155H112.187V9.44648C111.957 8.90782 111.058 7.76025 109.006 7.76025C105.618 7.76025 103.428 10.4301 103.428 13.8962C103.428 17.4794 105.756 20.0791 109.121 20.0791C110.551 20.0791 111.703 19.3765 112.211 18.2523V18.3695Z" fill="black"/>
<path d="M123.876 11.039C125.237 11.039 125.929 11.8821 126.182 12.7721L129.317 11.8119C128.81 9.7275 126.966 7.76025 123.808 7.76025C120.442 7.76025 117.768 10.313 117.768 13.943C117.768 17.5498 120.511 20.1024 123.923 20.1024C126.989 20.1024 128.88 18.0883 129.386 16.0509L126.297 15.0906C126.044 15.9571 125.283 16.8237 123.923 16.8237C122.471 16.8237 121.249 15.7933 121.249 13.943C121.249 12.0695 122.425 11.039 123.876 11.039Z" fill="black"/>
<path d="M134.058 12.5379C134.127 11.6713 134.865 10.5706 136.34 10.5706C137.999 10.5706 138.6 11.6479 138.645 12.5379H134.058ZM138.899 15.559C138.576 16.4723 137.862 17.0813 136.594 17.0813C135.233 17.0813 134.058 16.1446 133.989 14.833H141.965C141.988 14.7628 142.034 14.224 142.034 13.7323C142.034 9.98512 139.844 7.76025 136.294 7.76025C133.32 7.76025 130.577 10.1491 130.577 13.8962C130.577 17.8074 133.389 20.1024 136.547 20.1024C139.452 20.1024 141.274 18.4163 141.826 16.4022L138.899 15.559Z" fill="black"/>
</svg>
