<svg width="132" height="27" viewBox="0 0 132 27" fill="none" xmlns="http://www.w3.org/2000/svg">
<g clip-path="url(#clip0)">
<path fill-rule="evenodd" clip-rule="evenodd" d="M11.1011 6.86618C11.2218 6.5675 11.5074 6.37201 11.825 6.37036H8.11545C6.8289 6.37036 5.69322 7.22376 5.31674 8.47342C4.74105 10.3843 6.14813 12.3165 8.11545 12.3165H11.0945L11.0943 12.3173H13.6018C14.1614 12.3173 14.5422 12.8941 14.3297 13.42C14.2182 13.696 13.9658 13.8839 13.6775 13.9121H17.3156C18.602 13.9121 19.7375 13.0588 20.1141 11.8094C20.6784 9.93629 19.3375 8.04277 17.4313 7.96884H11.829C11.2694 7.96884 10.8887 7.3921 11.1011 6.86618Z" fill="url(#paint0_radial)"/>
<path d="M11.5856 6.37153L11.6233 6.37168H16.5326C19.5235 6.37168 22.1556 4.00558 22.9939 0.563477H12.3932C9.40539 0.563477 6.77388 2.93532 5.93283 6.37168C5.65303 7.30798 5.48111 7.83234 5.245 8.77033C6.38163 6.35078 8.93099 6.36094 11.5856 6.37153Z" fill="url(#paint1_linear)"/>
<path d="M20.1509 11.6743C19.3818 13.1335 17.8527 13.8302 15.3311 13.9115H8.93906C5.92434 13.8653 3.24107 15.845 2.35186 18.7715L0.0419922 26.3733C3.05673 26.4195 5.73997 24.4398 6.62919 21.5133L6.97105 20.3884C7.36836 19.3357 7.80365 18.872 9.14199 18.872H13.0566C16.0715 18.872 18.7249 16.8512 19.5698 13.9115H19.5691L20.1509 11.6743Z" fill="url(#paint2_linear)"/>
<path d="M31.282 15.7742C31.3676 16.9702 32.4381 19.1666 35.7778 19.1666C38.6251 19.1666 40.0167 17.3617 40.0167 15.5132C40.0167 13.9257 38.9463 12.5774 36.7412 12.1207L35.3283 11.838C34.8573 11.751 34.4934 11.49 34.4934 11.0333C34.4934 10.4679 35.0285 10.0982 35.6494 10.0982C36.6341 10.0982 37.0838 10.7071 37.1694 11.4248L39.867 10.9246C39.7599 9.66327 38.6894 7.70605 35.6066 7.70605C33.2302 7.70605 31.5175 9.31532 31.5175 11.2943C31.5175 12.8166 32.4167 14.1214 34.6861 14.6216L35.9063 14.9043C36.6984 15.0783 36.9554 15.4045 36.9554 15.7959C36.9554 16.2743 36.5485 16.731 35.7136 16.731C34.6003 16.731 34.0866 16.0134 34.0438 15.274L31.282 15.7742Z" fill="#1EE2C7"/>
<path d="M48.921 18.8404H52.0468C52.0253 18.6665 51.9397 17.8836 51.9397 16.905V8.03223H48.6855V14.1866C48.6855 15.2739 48.0004 16.0351 46.9087 16.0351C45.7526 16.0351 45.196 15.2087 45.196 14.1649V8.03223H41.9418V14.8608C41.9418 17.1659 43.3976 19.0796 45.9881 19.0796C47.0585 19.0796 48.2788 18.6883 48.8354 17.753C48.8354 18.0357 48.8782 18.6448 48.921 18.8404Z" fill="#1EE2C7"/>
<path d="M58.056 22.9723V17.9922C58.5485 18.6011 59.576 19.0796 60.9463 19.0796C63.922 19.0796 66.0201 16.7093 66.0201 13.4037C66.0201 10.1634 64.1575 7.77124 61.0747 7.77124C59.5547 7.77124 58.3986 8.4454 57.9491 9.14131V8.03221H54.802V22.9723H58.056ZM62.8302 13.4254C62.8302 15.2304 61.6956 16.122 60.411 16.122C59.148 16.122 58.0132 15.2087 58.0132 13.4254C58.0132 11.6205 59.148 10.7506 60.411 10.7506C61.6956 10.7506 62.8302 11.6205 62.8302 13.4254Z" fill="#1EE2C7"/>
<path d="M70.5818 12.1424C70.646 11.3378 71.331 10.3157 72.7013 10.3157C74.2426 10.3157 74.7992 11.316 74.8422 12.1424H70.5818ZM75.0775 14.9478C74.7779 15.7959 74.1142 16.3613 72.9368 16.3613C71.6736 16.3613 70.5818 15.4915 70.5175 14.2736H77.925C77.9463 14.2084 77.9891 13.7082 77.9891 13.2515C77.9891 9.77201 75.9553 7.70605 72.6584 7.70605C69.8966 7.70605 67.3491 9.92424 67.3491 13.4037C67.3491 17.0355 69.9609 19.1666 72.894 19.1666C75.5914 19.1666 77.2827 17.6009 77.7965 15.7307L75.0775 14.9478Z" fill="#1EE2C7"/>
<path d="M86.8437 8.03232C86.6295 7.96708 86.3084 7.92358 85.9873 7.92358C85.131 7.92358 83.7822 8.27154 83.2256 9.48935V8.03232H80.0785V18.8405H83.3327V14.1214C83.3327 11.9685 84.5101 11.1856 85.816 11.1856C86.1372 11.1856 86.4798 11.2074 86.8437 11.2943V8.03232Z" fill="#1EE2C7"/>
<path d="M95.2317 10.816V8.0324H92.9195V7.20602C92.9195 6.00993 93.733 5.74897 94.3111 5.74897C94.8248 5.74897 95.1031 5.81421 95.2745 5.85771V3.16109C94.9747 3.00886 94.3967 2.92188 93.733 2.92188C91.1425 2.92188 89.6653 4.61814 89.6653 7.09728V8.0324H87.9741V10.816H89.6653V18.8406H92.9195V10.816H95.2317Z" fill="#1EE2C7"/>
<path d="M99.3298 13.4255C99.3298 11.5553 100.379 10.5766 101.77 10.5766C103.098 10.5766 104.19 11.5553 104.19 13.4255C104.19 15.2522 103.076 16.2962 101.77 16.2962C100.422 16.2962 99.3298 15.2087 99.3298 13.4255ZM104.211 17.5575C104.211 18.0141 104.254 18.6012 104.297 18.8404H107.422C107.401 18.6012 107.337 17.9053 107.337 16.9051V8.03227H104.19V9.27184C103.975 8.77165 103.14 7.70605 101.235 7.70605C98.088 7.70605 96.0543 10.1852 96.0543 13.4037C96.0543 16.731 98.2166 19.1449 101.342 19.1449C102.669 19.1449 103.74 18.4926 104.211 17.4487V17.5575Z" fill="#1EE2C7"/>
<path d="M115.045 10.7506C116.308 10.7506 116.951 11.5335 117.186 12.3599L120.098 11.4683C119.627 9.53279 117.914 7.70605 114.981 7.70605C111.855 7.70605 109.372 10.0765 109.372 13.4472C109.372 16.7963 111.92 19.1666 115.088 19.1666C117.935 19.1666 119.691 17.2964 120.162 15.4045L117.293 14.5128C117.058 15.3175 116.351 16.1221 115.088 16.1221C113.739 16.1221 112.605 15.1652 112.605 13.4472C112.605 11.7075 113.696 10.7506 115.045 10.7506Z" fill="#1EE2C7"/>
<path d="M124.501 12.1424C124.565 11.3378 125.25 10.3157 126.62 10.3157C128.162 10.3157 128.718 11.316 128.761 12.1424H124.501ZM128.996 14.9478C128.697 15.7959 128.033 16.3613 126.856 16.3613C125.593 16.3613 124.501 15.4915 124.436 14.2736H131.844C131.865 14.2084 131.908 13.7082 131.908 13.2515C131.908 9.77201 129.874 7.70605 126.577 7.70605C123.816 7.70605 121.268 9.92424 121.268 13.4037C121.268 17.0355 123.88 19.1666 126.813 19.1666C129.51 19.1666 131.202 17.6009 131.715 15.7307L128.996 14.9478Z" fill="#1EE2C7"/>
</g>
<defs>
<radialGradient id="paint0_radial" cx="0" cy="0" r="1" gradientUnits="userSpaceOnUse" gradientTransform="translate(12.7154 10.1431) rotate(90) scale(4.11522 6.03035)">
<stop stop-color="#1EE2C7"/>
<stop offset="1" stop-color="#158E78"/>
</radialGradient>
<linearGradient id="paint1_linear" x1="23.0194" y1="3.59832" x2="7.26333" y2="5.13005" gradientUnits="userSpaceOnUse">
<stop stop-color="#1EE2B3"/>
<stop offset="1" stop-color="#59E0E9"/>
</linearGradient>
<linearGradient id="paint2_linear" x1="20.1797" y1="17.1102" x2="2.22786" y2="18.2141" gradientUnits="userSpaceOnUse">
<stop stop-color="#1EE2B3"/>
<stop offset="1" stop-color="#59E0E9"/>
</linearGradient>
<clipPath id="clip0">
<rect width="131.95" height="26" fill="white" transform="translate(0 0.5)"/>
</clipPath>
</defs>
</svg>
