<?xml version="1.0" encoding="UTF-8"?>
<svg fill="none" version="1.1" viewBox="0 0 460 400" xmlns="http://www.w3.org/2000/svg"><rect width="100%" height="100%" fill="#fff"/><path d="m157.52 232.34c-0.7 0-1.257-0.193-1.67-0.58-0.407-0.393-0.61-0.92-0.61-1.58v-3.18c0-0.66 0.203-1.183 0.61-1.57 0.413-0.393 0.97-0.59 1.67-0.59s1.253 0.197 1.66 0.59c0.413 0.387 0.62 0.907 0.62 1.56v3.19c0 0.66-0.207 1.187-0.62 1.58-0.407 0.387-0.96 0.58-1.66 0.58zm0-1.1c0.34 0 0.596-0.09 0.77-0.27001 0.173-0.187 0.26-0.44999 0.26-0.79v-3.18c0-0.34-0.087-0.6-0.26-0.78-0.174-0.187-0.43-0.28-0.77-0.28s-0.597 0.093-0.77 0.28c-0.174 0.18-0.26 0.44-0.26 0.78v3.18c0 0.34001 0.086 0.60301 0.26 0.79 0.173 0.18 0.43 0.27001 0.77 0.27001zm3.766 1v-5.5h1.22v1.05h0.02c0.06-0.36001 0.216-0.64 0.47-0.84 0.253-0.207 0.583-0.31 0.99-0.31 0.54 0 0.97 0.18 1.29 0.53999 0.326 0.36001 0.49 0.843 0.49 1.45v3.61h-1.25v-3.48c0-0.333-0.09-0.59-0.27-0.77-0.174-0.18001-0.41-0.27001-0.71-0.27001-0.314 0-0.56 0.093-0.74 0.28-0.174 0.18701-0.26 0.453-0.26 0.80001v3.44zm8.236 0.1c-0.467 0-0.873-0.09-1.22-0.27s-0.617-0.43-0.81-0.75c-0.187-0.327-0.28-0.707-0.28-1.14v-1.38c0-0.433 0.093-0.81 0.28-1.13 0.193-0.327 0.463-0.58001 0.81-0.76 0.347-0.18 0.753-0.27 1.22-0.27 0.46 0 0.86 0.09 1.2 0.27 0.347 0.18 0.613 0.433 0.8 0.76 0.193 0.32 0.29 0.697 0.29 1.13v0.99h-3.39v0.38999c0 0.78 0.37 1.17 1.11 1.17 0.573 0 0.91-0.19 1.01-0.57h1.23c-0.093 0.47301-0.347 0.85301-0.76 1.14-0.407 0.28-0.903 0.42-1.49 0.42zm-1.1-3.54v0.21l2.18-0.01v-0.21c0-0.38-0.09-0.67-0.27-0.87-0.18-0.207-0.45-0.31-0.81-0.31-0.367 0-0.643 0.103-0.83 0.31-0.18 0.207-0.27 0.5-0.27 0.88zm7.106 3.54c-0.747 0-1.34-0.18299-1.78-0.55-0.44-0.373-0.663-0.877-0.67-1.51h1.25c0 0.30001 0.107 0.537 0.32 0.71001 0.22 0.167 0.517 0.25 0.89 0.25 0.36 0 0.64-0.083 0.84-0.25 0.207-0.16701 0.31-0.397 0.31-0.69 0-0.24701-0.073-0.46001-0.22-0.64-0.147-0.18-0.35-0.307-0.61-0.38l-0.84-0.23c-0.573-0.147-1.017-0.41-1.33-0.79-0.307-0.38-0.46-0.84-0.46-1.38 0-0.413 0.093-0.773 0.28-1.08s0.45-0.543 0.79-0.71c0.347-0.167 0.753-0.25 1.22-0.25 0.707 0 1.267 0.183 1.68 0.55 0.413 0.36 0.623 0.847 0.63 1.46h-1.25c0-0.287-0.093-0.51-0.28-0.67-0.187-0.167-0.45-0.25-0.79-0.25-0.333 0-0.59 0.08-0.77 0.24-0.173 0.153-0.26 0.367-0.26 0.64 0 0.253 0.067 0.47 0.2 0.65 0.14 0.173 0.34 0.297 0.6 0.37l0.87 0.24c0.58 0.147 1.023 0.41 1.33 0.79 0.307 0.373 0.46 0.837 0.46 1.39 0 0.413-0.1 0.78-0.3 1.1-0.2 0.313-0.483 0.557-0.85 0.73-0.36 0.173-0.78 0.26-1.26 0.25999zm3.726-0.1v-7.3h2.17c0.493 0 0.92 0.097 1.28 0.29 0.367 0.187 0.65 0.45 0.85 0.79s0.3 0.74 0.3 1.2v2.73c0 0.46-0.1 0.863-0.3 1.21-0.2 0.34-0.483 0.607-0.85 0.8-0.36 0.187-0.787 0.28-1.28 0.28zm1.25-1.15h0.92c0.36 0 0.647-0.1 0.86-0.3 0.213-0.207 0.32-0.487 0.32-0.84v-2.73c0-0.347-0.107-0.62-0.32-0.82-0.213-0.20699-0.5-0.31-0.86-0.31h-0.92zm4.756 1.15v-7.3h1.25v2.95h0.87l1.37-2.95h1.36l-1.63 3.5 1.71 3.8h-1.39l-1.44-3.21h-0.85v3.21z" fill="#766dee"/><g stroke-width="2"><rect x="149.5" y="218.24" width="46" height="20" rx="3" stroke="#766dee"/><path d="m31.504 222.11v13.069l10.86 5.091m-10.86-18.16 10.86 4.732m-10.86-4.732 10.86-4.867 9.9039 4.867m-9.9039 18.16v-13.428m0 13.428 9.9039-5.091v-13.069m-9.9039 4.732 9.9039-4.732" stroke="#766dee" stroke-linejoin="round"/><path d="m411.5 223.11v13.069l10.86 5.091m-10.86-18.16 10.86 4.732m-10.86-4.732 10.86-4.867 9.904 4.867m-9.904 18.16v-13.428m0 13.428 9.904-5.091v-13.069m-9.904 4.732 9.904-4.732" stroke="#1ee2c7" stroke-linejoin="round"/><circle cx="303" cy="228.74" r="9.5" stroke="#1ee2c7"/></g><path d="m133.03 229.27c0.293-0.29301 0.293-0.767 0-1.06l-4.773-4.773c-0.293-0.29301-0.767-0.29301-1.06 0-0.293 0.293-0.293 0.76699 0 1.06l4.242 4.243-4.242 4.243c-0.293 0.29301-0.293 0.767 0 1.06 0.293 0.29301 0.767 0.29301 1.06 0zm-63.03 0.22h62.5v-1.5h-62.5z" fill="#5e5e5e"/><path d="m184.03 334.27c0.293-0.293 0.293-0.767 0-1.06l-4.773-4.773c-0.293-0.293-0.767-0.293-1.06 0s-0.293 0.767 0 1.06l4.242 4.243-4.242 4.243c-0.293 0.293-0.293 0.767 0 1.06s0.767 0.293 1.06 0zm-63.03 0.22001h62.5v-1.5h-62.5z" fill="#5e5e5e"/><g fill="#000"><path d="m199.7 332.88h1.09c0.34 0 0.61-0.09 0.81-0.26999 0.2-0.18701 0.3-0.433 0.3-0.74001 0-0.31299-0.1-0.56-0.3-0.74-0.193-0.187-0.463-0.27999-0.81-0.27999h-1.09zm1.26 1.19h-1.27v2.67h-1.38v-7.09h2.65c0.693 0 1.253 0.207 1.68 0.62 0.433 0.413 0.65 0.943 0.65 1.59 0 0.64699-0.217 1.177-0.65 1.59-0.427 0.413-0.987 0.62-1.68 0.62zm6.197-2.27v1.34c-0.133-0.027-0.266-0.04-0.4-0.04-0.38 0-0.686 0.11-0.92 0.33-0.233 0.213-0.35 0.567-0.35 1.06v2.25h-1.33v-4.92h1.29v0.73001c0.24-0.513 0.707-0.77 1.4-0.77 0.074 0 0.177 7e-3 0.31 0.02zm2.207 3.51c0.247 0.24701 0.543 0.37 0.89 0.37s0.64-0.12299 0.88-0.37c0.247-0.247 0.37-0.58999 0.37-1.03s-0.123-0.783-0.37-1.03c-0.24-0.247-0.533-0.37-0.88-0.37s-0.643 0.123-0.89 0.37c-0.24 0.247-0.36 0.59-0.36 1.03s0.12 0.783 0.36 1.03zm-0.96-2.9c0.493-0.493 1.11-0.74 1.85-0.74s1.353 0.247 1.84 0.74c0.493 0.493 0.74 1.117 0.74 1.87s-0.247 1.377-0.74 1.87c-0.487 0.493-1.1 0.74-1.84 0.74s-1.357-0.247-1.85-0.74c-0.487-0.493-0.73-1.117-0.73-1.87s0.243-1.377 0.73-1.87zm5.13 4.6 1.2-0.32c0.046 0.273 0.173 0.497 0.38 0.67 0.206 0.173 0.463 0.26 0.77 0.26 0.873 0 1.31-0.457 1.31-1.37v-0.36c-0.114 0.18-0.287 0.33-0.52 0.45-0.234 0.12-0.517 0.18-0.85 0.18-0.654 0-1.2-0.227-1.64-0.68-0.434-0.453-0.65-1.023-0.65-1.71 0-0.667 0.216-1.233 0.65-1.7 0.433-0.467 0.98-0.7 1.64-0.7 0.36 0 0.66 0.067 0.9 0.2 0.24 0.127 0.406 0.283 0.5 0.47v-0.58h1.28v4.39c0 0.74-0.214 1.353-0.64 1.84-0.427 0.493-1.074 0.74-1.94 0.74-0.647 0-1.19-0.173-1.63-0.52-0.434-0.347-0.687-0.767-0.76-1.26zm2.52-1.63c0.34 0 0.616-0.113 0.83-0.34 0.22-0.227 0.33-0.53 0.33-0.91 0-0.373-0.114-0.673-0.34-0.9-0.22-0.227-0.494-0.34-0.82-0.34-0.34 0-0.624 0.113-0.85 0.34-0.22 0.227-0.33 0.527-0.33 0.9 0 0.38 0.11 0.683 0.33 0.91s0.503 0.34 0.85 0.34zm6.797-3.58v1.34c-0.134-0.027-0.267-0.04-0.4-0.04-0.38 0-0.687 0.11-0.92 0.32999-0.234 0.21301-0.35 0.56701-0.35 1.06v2.25h-1.33v-4.92h1.29v0.73001c0.24-0.513 0.706-0.77 1.4-0.77 0.073 0 0.176 7e-3 0.31 0.02zm0.664 3.6c0-0.42 0.137-0.757 0.41-1.01 0.274-0.253 0.627-0.413 1.06-0.48l1.21-0.18c0.247-0.033 0.37-0.15 0.37-0.35 0-0.187-0.073-0.34-0.22-0.46-0.14-0.12-0.343-0.18-0.61-0.18-0.28 0-0.503 0.077-0.67 0.23-0.16 0.153-0.25 0.343-0.27 0.57l-1.18-0.25c0.047-0.427 0.257-0.803 0.63-1.13 0.374-0.327 0.867-0.49 1.48-0.49 0.734 0 1.274 0.177 1.62 0.53 0.347 0.347 0.52 0.793 0.52 1.34v2.42c0 0.293 0.02 0.553 0.06 0.78h-1.22c-0.033-0.147-0.05-0.34301-0.05-0.59-0.313 0.487-0.796 0.73-1.45 0.73-0.506 0-0.916-0.147-1.23-0.44-0.306-0.293-0.46-0.64-0.46-1.04zm1.97 0.49c0.314 0 0.57-0.087 0.77-0.26 0.207-0.18 0.31-0.473 0.31-0.88v-0.22l-1.11 0.17c-0.406 0.06-0.61 0.267-0.61 0.62 0 0.16 0.057 0.297 0.17 0.41 0.114 0.107 0.27 0.16 0.47 0.16zm5.051 0.85h-1.33v-4.92h1.27v0.6c0.127-0.227 0.327-0.407 0.6-0.54s0.553-0.2 0.84-0.2c0.713 0 1.2 0.273 1.46 0.82 0.353-0.547 0.873-0.82 1.56-0.82 0.5 0 0.92 0.157 1.26 0.47 0.347 0.313 0.52 0.78 0.52 1.4v3.19h-1.29v-2.92c0-0.27999-0.073-0.503-0.22-0.67-0.14-0.173-0.357-0.26-0.65-0.26-0.273 0-0.493 0.093-0.66 0.28s-0.25 0.417-0.25 0.69v2.88h-1.32v-2.92c0-0.27999-0.073-0.503-0.22-0.67-0.147-0.173-0.363-0.26-0.65-0.26-0.28 0-0.503 0.093-0.67 0.28-0.167 0.18-0.25 0.41-0.25 0.69zm8.858 0h-1.33v-4.92h1.27v0.6c0.126-0.227 0.326-0.407 0.6-0.54 0.273-0.133 0.553-0.2 0.84-0.2 0.713 0 1.2 0.273 1.46 0.82 0.353-0.547 0.873-0.82 1.56-0.82 0.5 0 0.92 0.157 1.26 0.47 0.346 0.313 0.52 0.78 0.52 1.4v3.19h-1.29v-2.92c0-0.27999-0.074-0.503-0.22-0.67-0.14-0.173-0.357-0.26-0.65-0.26-0.274 0-0.494 0.093-0.66 0.28-0.167 0.187-0.25 0.417-0.25 0.69v2.88h-1.32v-2.92c0-0.27999-0.074-0.503-0.22-0.67-0.147-0.173-0.364-0.26-0.65-0.26-0.28 0-0.504 0.093-0.67 0.28-0.167 0.18-0.25 0.41-0.25 0.69zm8.857 0h-1.33v-4.92h1.33zm-1.49-6.53c0-0.227 0.08-0.42 0.24-0.58 0.16-0.167 0.353-0.25 0.58-0.25s0.42 0.08 0.58 0.24 0.24 0.357 0.24 0.59c0 0.22-0.08 0.41-0.24 0.57s-0.353 0.24-0.58 0.24-0.42-0.08-0.58-0.24-0.24-0.35-0.24-0.57zm4.244 3.7v2.83h-1.33v-4.92h1.29v0.61c0.14-0.24 0.34-0.423 0.6-0.55s0.533-0.19 0.82-0.19c0.58 0 1.02 0.183 1.32 0.55001 0.307 0.36 0.46 0.82699 0.46 1.4v3.1h-1.33v-2.87c0-0.293-0.077-0.52999-0.23-0.70999-0.147-0.18-0.373-0.27-0.68-0.27-0.28 0-0.503 0.097-0.67 0.29s-0.25 0.437-0.25 0.73zm4.16 3.1 1.2-0.32c0.046 0.273 0.173 0.497 0.38 0.67 0.206 0.173 0.463 0.26 0.77 0.26 0.873 0 1.31-0.457 1.31-1.37v-0.36c-0.114 0.18-0.287 0.33-0.52 0.45-0.234 0.12-0.517 0.18-0.85 0.18-0.654 0-1.2-0.227-1.64-0.68-0.434-0.453-0.65-1.023-0.65-1.71 0-0.667 0.216-1.233 0.65-1.7 0.433-0.467 0.98-0.7 1.64-0.7 0.36 0 0.66 0.067 0.9 0.2 0.24 0.127 0.406 0.283 0.5 0.47v-0.58h1.28v4.39c0 0.74-0.214 1.353-0.64 1.84-0.427 0.493-1.074 0.74-1.94 0.74-0.647 0-1.19-0.173-1.63-0.52-0.434-0.347-0.687-0.767-0.76-1.26zm2.52-1.63c0.34 0 0.616-0.113 0.83-0.34 0.22-0.227 0.33-0.53 0.33-0.91 0-0.373-0.114-0.673-0.34-0.9-0.22-0.227-0.494-0.34-0.82-0.34-0.34 0-0.624 0.113-0.85 0.34-0.22 0.227-0.33 0.527-0.33 0.9 0 0.38 0.11 0.683 0.33 0.91s0.503 0.34 0.85 0.34z"/><path d="m201.81 362.74-1.39-2.73h-0.72v2.73h-1.39v-7.09h2.77c0.68 0 1.227 0.207 1.64 0.62s0.62 0.933 0.62 1.56c0 0.493-0.137 0.92-0.41 1.28-0.267 0.353-0.633 0.59699-1.1 0.73l1.52 2.9zm-2.11-3.92h1.12c0.347 0 0.617-0.09 0.81-0.26999 0.2-0.18001 0.3-0.417 0.3-0.71 0-0.3-0.1-0.54-0.3-0.72001-0.193-0.18-0.463-0.26999-0.81-0.26999h-1.12zm7.873 3.92c-0.027-0.133-0.04-0.31001-0.04-0.53-0.127 0.22-0.317 0.387-0.57 0.5-0.247 0.107-0.51 0.16-0.79 0.16-0.58 0-1.037-0.183-1.37-0.55-0.334-0.373-0.5-0.837-0.5-1.39v-3.11h1.33v2.84c0 0.293 0.076 0.533 0.23 0.72 0.153 0.18 0.376 0.27 0.67 0.27 0.286 0 0.513-0.087 0.68-0.26 0.166-0.18 0.25-0.417 0.25-0.71v-2.86h1.33v4.03c0 0.313 0.016 0.61 0.05 0.89zm3.969-2.83v2.83h-1.33v-4.92h1.29v0.61c0.14-0.24 0.34-0.423 0.6-0.55s0.533-0.19 0.82-0.19c0.58 0 1.02 0.183 1.32 0.55001 0.307 0.36 0.46 0.82699 0.46 1.4v3.1h-1.33v-2.87c0-0.293-0.077-0.52999-0.23-0.70999-0.147-0.18-0.373-0.27-0.68-0.27-0.28 0-0.503 0.097-0.67 0.29s-0.25 0.437-0.25 0.73zm6.15-3.56v1.47h0.99v1.18h-0.99v2.06c0 0.207 0.046 0.353 0.14 0.44 0.093 0.087 0.24 0.13 0.44 0.13 0.18 0 0.316-0.013 0.41-0.04v1.1c-0.194 0.08-0.444 0.12-0.75 0.12-0.48 0-0.86-0.133-1.14-0.4-0.28-0.273-0.42-0.647-0.42-1.12v-2.29h-0.89v-1.18h0.25c0.246 0 0.433-0.07 0.56-0.21 0.133-0.147 0.2-0.337 0.2-0.57v-0.69zm3.45 6.39h-1.33v-4.92h1.33zm-1.49-6.53c0-0.227 0.08-0.42 0.24-0.58 0.16-0.167 0.353-0.25 0.58-0.25 0.226 0 0.42 0.08 0.58 0.24s0.24 0.357 0.24 0.59c0 0.22-0.08 0.41-0.24 0.57s-0.354 0.24-0.58 0.24c-0.227 0-0.42-0.08-0.58-0.24-0.16-0.16001-0.24-0.35001-0.24-0.57zm4.243 6.53h-1.33v-4.92h1.27v0.60001c0.127-0.227 0.327-0.407 0.6-0.54001 0.274-0.13299 0.554-0.2 0.84-0.2 0.714 0 1.2 0.27301 1.46 0.82 0.354-0.547 0.874-0.82 1.56-0.82 0.5 0 0.92 0.157 1.26 0.47001 0.347 0.313 0.52 0.77999 0.52 1.4v3.19h-1.29v-2.92c0-0.27999-0.073-0.503-0.22-0.67-0.14-0.173-0.356-0.26-0.65-0.26-0.273 0-0.493 0.093-0.66 0.28-0.166 0.187-0.25 0.417-0.25 0.69v2.88h-1.32v-2.92c0-0.27999-0.073-0.503-0.22-0.67-0.146-0.173-0.363-0.26-0.65-0.26-0.28 0-0.503 0.093-0.67 0.28-0.166 0.18-0.25 0.41-0.25 0.69zm8.498-3.02h2.2c-0.013-0.27301-0.113-0.503-0.3-0.69-0.18-0.187-0.447-0.28-0.8-0.28-0.32 0-0.58 0.1-0.78 0.3s-0.307 0.423-0.32 0.67zm2.33 1.28 1.11 0.33c-0.133 0.453-0.397 0.827-0.79 1.12-0.387 0.293-0.87 0.44-1.45 0.44-0.707 0-1.307-0.237-1.8-0.71-0.493-0.48-0.74-1.12-0.74-1.92 0-0.76 0.24-1.38 0.72-1.86 0.48-0.487 1.047-0.73 1.7-0.73 0.76 0 1.353 0.227 1.78 0.68 0.433 0.453 0.65 1.077 0.65 1.87 0 0.053-3e-3 0.113-0.01 0.18v0.16l-0.01 0.07h-3.52c0.013 0.32 0.14 0.587 0.38 0.8 0.24 0.21301 0.527 0.32 0.86 0.32 0.567 0 0.94-0.25 1.12-0.75zm9.608 1.74-0.59-1.62h-2.88l-0.59 1.62h-1.46l2.72-7.09h1.6l2.7 7.09zm-2.03-5.56-0.98 2.68h1.96zm5.827 1.7h1.09c0.34 0 0.61-0.09 0.81-0.26999 0.2-0.18701 0.3-0.433 0.3-0.74001 0-0.31299-0.1-0.56-0.3-0.74-0.194-0.187-0.464-0.27999-0.81-0.27999h-1.09zm1.26 1.19h-1.27v2.67h-1.38v-7.09h2.65c0.693 0 1.253 0.207 1.68 0.62 0.433 0.413 0.65 0.943 0.65 1.59 0 0.64699-0.217 1.177-0.65 1.59-0.427 0.413-0.987 0.62-1.68 0.62zm4.785 2.67h-1.4v-7.09h1.4zm8.898 0-0.59-1.62h-2.88l-0.59 1.62h-1.46l2.72-7.09h1.6l2.7 7.09zm-2.03-5.56-0.98 2.68h1.96zm5.837 5.56h-1.4v-7.09h1.4zm5.318 0h-1.33v-4.92h1.27v0.60001c0.127-0.227 0.327-0.407 0.6-0.54001 0.274-0.13299 0.554-0.2 0.84-0.2 0.714 0 1.2 0.27301 1.46 0.82 0.354-0.547 0.874-0.82 1.56-0.82 0.5 0 0.92 0.157 1.26 0.47001 0.347 0.313 0.52 0.77999 0.52 1.4v3.19h-1.29v-2.92c0-0.27999-0.073-0.503-0.22-0.67-0.14-0.173-0.356-0.26-0.65-0.26-0.273 0-0.493 0.093-0.66 0.28-0.166 0.187-0.25 0.417-0.25 0.69v2.88h-1.32v-2.92c0-0.27999-0.073-0.503-0.22-0.67-0.146-0.173-0.363-0.26-0.65-0.26-0.28 0-0.503 0.093-0.67 0.28-0.166 0.18-0.25 0.41-0.25 0.69zm8.498-3.02h2.2c-0.014-0.27301-0.114-0.503-0.3-0.69-0.18-0.187-0.447-0.28-0.8-0.28-0.32 0-0.58 0.1-0.78 0.3s-0.307 0.423-0.32 0.67zm2.33 1.28 1.11 0.33c-0.134 0.453-0.397 0.827-0.79 1.12-0.387 0.293-0.87 0.44-1.45 0.44-0.707 0-1.307-0.237-1.8-0.71-0.494-0.48-0.74-1.12-0.74-1.92 0-0.76 0.24-1.38 0.72-1.86 0.48-0.487 1.046-0.73 1.7-0.73 0.76 0 1.353 0.227 1.78 0.68 0.433 0.453 0.65 1.077 0.65 1.87 0 0.053-4e-3 0.113-0.01 0.18v0.16l-0.01 0.07h-3.52c0.013 0.32 0.14 0.587 0.38 0.8 0.24 0.21301 0.526 0.32 0.86 0.32 0.566 0 0.94-0.25 1.12-0.75zm3.867-4.65v1.47h0.99v1.18h-0.99v2.06c0 0.207 0.047 0.353 0.14 0.44s0.24 0.13 0.44 0.13c0.18 0 0.317-0.013 0.41-0.04v1.1c-0.193 0.08-0.443 0.12-0.75 0.12-0.48 0-0.86-0.133-1.14-0.4-0.28-0.273-0.42-0.647-0.42-1.12v-2.29h-0.89v-1.18h0.25c0.247 0 0.433-0.07 0.56-0.21 0.133-0.147 0.2-0.337 0.2-0.57v-0.69zm1.849 5.05c0-0.42 0.137-0.757 0.41-1.01s0.627-0.413 1.06-0.48l1.21-0.18c0.247-0.033 0.37-0.15 0.37-0.35001 0-0.187-0.073-0.33999-0.22-0.45999-0.14-0.12-0.343-0.18-0.61-0.18-0.28 0-0.503 0.077-0.67 0.23-0.16 0.153-0.25 0.343-0.27 0.57l-1.18-0.25c0.047-0.42701 0.257-0.803 0.63-1.13s0.867-0.49 1.48-0.49c0.733 0 1.273 0.177 1.62 0.52999 0.347 0.347 0.52 0.793 0.52 1.34v2.42c0 0.293 0.02 0.553 0.06 0.78h-1.22c-0.033-0.147-0.05-0.343-0.05-0.59-0.313 0.487-0.797 0.73-1.45 0.73-0.507 0-0.917-0.147-1.23-0.44-0.307-0.293-0.46-0.63999-0.46-1.04zm1.97 0.49c0.313 0 0.57-0.087 0.77-0.26 0.207-0.18 0.31-0.473 0.31-0.88v-0.22l-1.11 0.17c-0.407 0.06-0.61 0.267-0.61 0.62 0 0.16 0.057 0.297 0.17 0.41 0.113 0.107 0.27 0.16 0.47 0.16zm8.391-6.39v6.35c0 0.327 0.014 0.623 0.04 0.89h-1.27c-0.033-0.167-0.05-0.357-0.05-0.57-0.113 0.207-0.293 0.373-0.54 0.5-0.24 0.127-0.52 0.19-0.84 0.19-0.7 0-1.276-0.243-1.73-0.73-0.446-0.493-0.67-1.113-0.67-1.86 0-0.727 0.22-1.337 0.66-1.83 0.447-0.493 1.014-0.74 1.7-0.74 0.707 0 1.17 0.203 1.39 0.61v-2.81zm-3.72 4.77c0 0.433 0.114 0.777 0.34 1.03 0.227 0.247 0.52 0.37 0.88 0.37 0.354 0 0.644-0.12701 0.87-0.38 0.227-0.253 0.34-0.597 0.34-1.03 0-0.427-0.113-0.76-0.34-1-0.226-0.247-0.516-0.37-0.87-0.37-0.353 0-0.646 0.123-0.88 0.37-0.226 0.247-0.34 0.583-0.34 1.01zm4.834 1.13c0-0.42 0.136-0.757 0.41-1.01 0.273-0.253 0.626-0.413 1.06-0.48l1.21-0.18c0.246-0.033 0.37-0.15 0.37-0.35001 0-0.187-0.074-0.33999-0.22-0.45999-0.14-0.12-0.344-0.18-0.61-0.18-0.28 0-0.504 0.077-0.67 0.23-0.16 0.153-0.25 0.343-0.27 0.57l-1.18-0.25c0.046-0.42701 0.256-0.803 0.63-1.13 0.373-0.327 0.866-0.49 1.48-0.49 0.733 0 1.273 0.177 1.62 0.52999 0.346 0.347 0.52 0.793 0.52 1.34v2.42c0 0.293 0.02 0.553 0.06 0.78h-1.22c-0.034-0.147-0.05-0.343-0.05-0.59-0.314 0.487-0.797 0.73-1.45 0.73-0.507 0-0.917-0.147-1.23-0.44-0.307-0.293-0.46-0.63999-0.46-1.04zm1.97 0.49c0.313 0 0.57-0.087 0.77-0.26 0.206-0.18 0.31-0.473 0.31-0.88v-0.22l-1.11 0.17c-0.407 0.06-0.61 0.267-0.61 0.62 0 0.16 0.056 0.297 0.17 0.41 0.113 0.107 0.27 0.16 0.47 0.16zm5.331-5.54v1.47h0.99v1.18h-0.99v2.06c0 0.207 0.047 0.353 0.14 0.44s0.24 0.13 0.44 0.13c0.18 0 0.317-0.013 0.41-0.04v1.1c-0.193 0.08-0.443 0.12-0.75 0.12-0.48 0-0.86-0.133-1.14-0.4-0.28-0.273-0.42-0.647-0.42-1.12v-2.29h-0.89v-1.18h0.25c0.247 0 0.433-0.07 0.56-0.21 0.133-0.147 0.2-0.337 0.2-0.57v-0.69zm1.849 5.05c0-0.42 0.137-0.757 0.41-1.01s0.627-0.413 1.06-0.48l1.21-0.18c0.247-0.033 0.37-0.15 0.37-0.35001 0-0.187-0.073-0.33999-0.22-0.45999-0.14-0.12-0.343-0.18-0.61-0.18-0.28 0-0.503 0.077-0.67 0.23-0.16 0.153-0.25 0.343-0.27 0.57l-1.18-0.25c0.047-0.42701 0.257-0.803 0.63-1.13s0.867-0.49 1.48-0.49c0.733 0 1.273 0.177 1.62 0.52999 0.347 0.347 0.52 0.793 0.52 1.34v2.42c0 0.293 0.02 0.553 0.06 0.78h-1.22c-0.033-0.147-0.05-0.343-0.05-0.59-0.313 0.487-0.797 0.73-1.45 0.73-0.507 0-0.917-0.147-1.23-0.44-0.307-0.293-0.46-0.63999-0.46-1.04zm1.97 0.49c0.313 0 0.57-0.087 0.77-0.26 0.207-0.18 0.31-0.473 0.31-0.88v-0.22l-1.11 0.17c-0.407 0.06-0.61 0.267-0.61 0.62 0 0.16 0.057 0.297 0.17 0.41 0.113 0.107 0.27 0.16 0.47 0.16z"/><path d="m199.69 384.46h1.1c0.62 0 1.13-0.193 1.53-0.58s0.6-0.947 0.6-1.68-0.2-1.293-0.6-1.68c-0.4-0.393-0.907-0.59-1.52-0.59h-1.11zm1.15 1.28h-2.53v-7.09h2.54c1.033 0 1.873 0.317 2.52 0.95 0.653 0.63299 0.98 1.5 0.98 2.6 0 1.093-0.327 1.957-0.98 2.59-0.653 0.63299-1.497 0.95-2.53 0.95zm5.936 0h-1.33v-4.92h1.33zm-1.49-6.53c0-0.227 0.08-0.42 0.24-0.58 0.16-0.167 0.354-0.25 0.58-0.25 0.227 0 0.42 0.08 0.58 0.24s0.24 0.357 0.24 0.59c0 0.22-0.08 0.41-0.24 0.57s-0.353 0.24-0.58 0.24c-0.226 0-0.42-0.08-0.58-0.24-0.16-0.16001-0.24-0.35001-0.24-0.57zm5.914 1.59v1.34c-0.133-0.027-0.266-0.04-0.4-0.04-0.38 0-0.686 0.11-0.92 0.33-0.233 0.213-0.35 0.567-0.35 1.06v2.25h-1.33v-4.92h1.29v0.73001c0.24-0.513 0.707-0.77 1.4-0.77 0.074 0 0.177 7e-3 0.31 0.02zm1.857 1.92h2.2c-0.013-0.27301-0.113-0.503-0.3-0.69-0.18-0.187-0.447-0.28-0.8-0.28-0.32 0-0.58 0.1-0.78 0.3s-0.307 0.423-0.32 0.67zm2.33 1.28 1.11 0.33c-0.133 0.453-0.397 0.827-0.79 1.12-0.387 0.293-0.87 0.44-1.45 0.44-0.707 0-1.307-0.237-1.8-0.71-0.493-0.48-0.74-1.12-0.74-1.92 0-0.76 0.24-1.38 0.72-1.86 0.48-0.487 1.047-0.73 1.7-0.73 0.76 0 1.353 0.227 1.78 0.68 0.433 0.453 0.65 1.077 0.65 1.87 0 0.053-3e-3 0.113-0.01 0.18v0.16l-0.01 0.07h-3.52c0.013 0.32 0.14 0.587 0.38 0.8 0.24 0.21301 0.527 0.32 0.86 0.32 0.567 0 0.94-0.25 1.12-0.75zm4.437-2.1c-0.353 0-0.65 0.123-0.89 0.37s-0.36 0.58301-0.36 1.01c0 0.427 0.12 0.767 0.36 1.02 0.247 0.247 0.547 0.37 0.9 0.37 0.314 0 0.564-0.08 0.75-0.24 0.187-0.167 0.314-0.363 0.38-0.59l1.17 0.39c-0.12 0.453-0.38 0.843-0.78 1.17s-0.906 0.49-1.52 0.49c-0.733 0-1.35-0.247-1.85-0.74-0.493-0.5-0.74-1.123-0.74-1.87 0-0.753 0.244-1.377 0.73-1.87 0.494-0.493 1.1-0.74 1.82-0.74 0.627 0 1.14 0.163 1.54 0.49 0.4 0.32 0.657 0.71 0.77 1.17l-1.19 0.4c-0.16-0.553-0.523-0.83-1.09-0.83zm4.928-2.55v1.47h0.99v1.18h-0.99v2.06c0 0.207 0.047 0.35301 0.14 0.44 0.094 0.087 0.24 0.13 0.44 0.13 0.18 0 0.317-0.013 0.41-0.04v1.1c-0.193 0.08-0.443 0.12-0.75 0.12-0.48 0-0.86-0.13299-1.14-0.39999-0.28-0.27301-0.42-0.647-0.42-1.12v-2.29h-0.89v-1.18h0.25c0.247 0 0.434-0.07 0.56-0.20999 0.134-0.147 0.2-0.337 0.2-0.57v-0.69zm6.772 2.55c-0.354 0-0.65 0.123-0.89 0.37s-0.36 0.58301-0.36 1.01c0 0.427 0.12 0.767 0.36 1.02 0.246 0.247 0.546 0.37 0.9 0.37 0.313 0 0.563-0.08 0.75-0.24 0.186-0.167 0.313-0.363 0.38-0.59l1.17 0.39c-0.12 0.453-0.38 0.843-0.78 1.17s-0.907 0.49-1.52 0.49c-0.734 0-1.35-0.247-1.85-0.74-0.494-0.5-0.74-1.123-0.74-1.87 0-0.753 0.243-1.377 0.73-1.87 0.493-0.493 1.1-0.74 1.82-0.74 0.626 0 1.14 0.163 1.54 0.49 0.4 0.32 0.656 0.71 0.77 1.17l-1.19 0.4c-0.16-0.553-0.524-0.83-1.09-0.83zm4.559 2.41c0.246 0.24701 0.543 0.37 0.89 0.37 0.346 0 0.64-0.12299 0.88-0.37 0.246-0.247 0.37-0.58999 0.37-1.03s-0.124-0.783-0.37-1.03c-0.24-0.247-0.534-0.37-0.88-0.37-0.347 0-0.644 0.123-0.89 0.37-0.24 0.247-0.36 0.59-0.36 1.03s0.12 0.783 0.36 1.03zm-0.96-2.9c0.493-0.493 1.11-0.74 1.85-0.74s1.353 0.247 1.84 0.74c0.493 0.493 0.74 1.117 0.74 1.87s-0.247 1.377-0.74 1.87c-0.487 0.493-1.1 0.74-1.84 0.74s-1.357-0.247-1.85-0.74c-0.487-0.493-0.73-1.117-0.73-1.87s0.243-1.377 0.73-1.87zm6.81 4.33h-1.33v-4.92h1.27v0.60001c0.126-0.227 0.326-0.407 0.6-0.54001 0.273-0.13299 0.553-0.2 0.84-0.2 0.713 0 1.2 0.27301 1.46 0.82 0.353-0.547 0.873-0.82 1.56-0.82 0.5 0 0.92 0.157 1.26 0.47001 0.346 0.313 0.52 0.77999 0.52 1.4v3.19h-1.29v-2.92c0-0.27999-0.074-0.503-0.22-0.67-0.14-0.173-0.357-0.26-0.65-0.26-0.274 0-0.494 0.093-0.66 0.28-0.167 0.187-0.25 0.417-0.25 0.69v2.88h-1.32v-2.92c0-0.27999-0.074-0.503-0.22-0.67-0.147-0.173-0.364-0.26-0.65-0.26-0.28 0-0.504 0.093-0.67 0.28-0.167 0.18-0.25 0.41-0.25 0.69zm8.857 0h-1.33v-4.92h1.27v0.60001c0.127-0.227 0.327-0.407 0.6-0.54001 0.273-0.13299 0.553-0.2 0.84-0.2 0.713 0 1.2 0.27301 1.46 0.82 0.353-0.547 0.873-0.82 1.56-0.82 0.5 0 0.92 0.157 1.26 0.47001 0.347 0.313 0.52 0.77999 0.52 1.4v3.19h-1.29v-2.92c0-0.27999-0.073-0.503-0.22-0.67-0.14-0.173-0.357-0.26-0.65-0.26-0.273 0-0.493 0.093-0.66 0.28s-0.25 0.417-0.25 0.69v2.88h-1.32v-2.92c0-0.27999-0.073-0.503-0.22-0.67-0.147-0.173-0.363-0.26-0.65-0.26-0.28 0-0.503 0.093-0.67 0.28-0.167 0.18-0.25 0.41-0.25 0.69zm10.708 0c-0.026-0.133-0.04-0.31001-0.04-0.53-0.126 0.22-0.316 0.387-0.57 0.5-0.246 0.107-0.51 0.16-0.79 0.16-0.58 0-1.036-0.183-1.37-0.55-0.333-0.373-0.5-0.837-0.5-1.39v-3.11h1.33v2.84c0 0.293 0.077 0.533 0.23 0.72 0.154 0.18 0.377 0.27 0.67 0.27 0.287 0 0.514-0.087 0.68-0.26 0.167-0.18 0.25-0.417 0.25-0.71v-2.86h1.33v4.03c0 0.313 0.017 0.61 0.05 0.89zm3.97-2.83v2.83h-1.33v-4.92h1.29v0.61c0.14-0.24 0.34-0.423 0.6-0.55s0.533-0.19 0.82-0.19c0.58 0 1.02 0.183 1.32 0.55001 0.306 0.36 0.46 0.82699 0.46 1.4v3.1h-1.33v-2.87c0-0.293-0.077-0.52999-0.23-0.70999-0.147-0.18-0.374-0.27-0.68-0.27-0.28 0-0.504 0.097-0.67 0.29-0.167 0.193-0.25 0.437-0.25 0.73zm5.84 2.83h-1.33v-4.92h1.33zm-1.49-6.53c0-0.227 0.08-0.42 0.24-0.58 0.16-0.167 0.353-0.25 0.58-0.25 0.226 0 0.42 0.08 0.58 0.24s0.24 0.357 0.24 0.59c0 0.22-0.08 0.41-0.24 0.57s-0.354 0.24-0.58 0.24c-0.227 0-0.42-0.08-0.58-0.24-0.16-0.16001-0.24-0.35001-0.24-0.57zm5.123 2.69c-0.353 0-0.65 0.123-0.89 0.37s-0.36 0.583-0.36 1.01 0.12 0.767 0.36 1.02c0.247 0.247 0.547 0.37 0.9 0.37 0.314 0 0.564-0.08 0.75-0.24001 0.187-0.16699 0.314-0.363 0.38-0.58999l1.17 0.39c-0.12 0.45299-0.38 0.843-0.78 1.17s-0.906 0.49-1.52 0.49c-0.733 0-1.35-0.247-1.85-0.74-0.493-0.5-0.74-1.123-0.74-1.87 0-0.753 0.244-1.377 0.73-1.87 0.494-0.493 1.1-0.74 1.82-0.74 0.627 0 1.14 0.163 1.54 0.49 0.4 0.32 0.657 0.70999 0.77 1.17l-1.19 0.4c-0.16-0.553-0.523-0.83-1.09-0.83zm2.969 2.5c0-0.42 0.137-0.757 0.41-1.01s0.627-0.413 1.06-0.48l1.21-0.18c0.247-0.033 0.37-0.15 0.37-0.35001 0-0.187-0.073-0.33999-0.22-0.45999-0.14-0.12-0.343-0.18-0.61-0.18-0.28 0-0.503 0.077-0.67 0.23-0.16 0.153-0.25 0.343-0.27 0.57l-1.18-0.25c0.047-0.42701 0.257-0.803 0.63-1.13s0.867-0.49 1.48-0.49c0.733 0 1.273 0.177 1.62 0.52999 0.347 0.347 0.52 0.793 0.52 1.34v2.42c0 0.293 0.02 0.553 0.06 0.78h-1.22c-0.033-0.147-0.05-0.343-0.05-0.59-0.313 0.487-0.797 0.73-1.45 0.73-0.507 0-0.917-0.147-1.23-0.44-0.307-0.293-0.46-0.63999-0.46-1.04zm1.97 0.49c0.313 0 0.57-0.087 0.77-0.26 0.207-0.18 0.31-0.473 0.31-0.88v-0.22l-1.11 0.17c-0.407 0.06-0.61 0.267-0.61 0.62 0 0.16 0.057 0.297 0.17 0.41 0.113 0.107 0.27 0.16 0.47 0.16zm5.331-5.54v1.47h0.99v1.18h-0.99v2.06c0 0.207 0.047 0.353 0.14 0.44 0.094 0.087 0.24 0.13 0.44 0.13 0.18 0 0.317-0.013 0.41-0.04v1.1c-0.193 0.08-0.443 0.12-0.75 0.12-0.48 0-0.86-0.133-1.14-0.4-0.28-0.273-0.42-0.647-0.42-1.12v-2.29h-0.89v-1.18h0.25c0.247 0 0.434-0.07 0.56-0.21 0.134-0.147 0.2-0.337 0.2-0.57v-0.69zm3.45 6.39h-1.33v-4.92h1.33zm-1.49-6.53c0-0.227 0.08-0.42 0.24-0.58 0.16-0.167 0.353-0.25 0.58-0.25s0.42 0.08 0.58 0.24 0.24 0.357 0.24 0.59c0 0.22-0.08 0.41-0.24 0.57s-0.353 0.24-0.58 0.24-0.42-0.08-0.58-0.24c-0.16-0.16001-0.24-0.35001-0.24-0.57zm4.234 5.1c0.247 0.247 0.543 0.37 0.89 0.37s0.64-0.123 0.88-0.37c0.247-0.247 0.37-0.59 0.37-1.03s-0.123-0.783-0.37-1.03c-0.24-0.247-0.533-0.37-0.88-0.37s-0.643 0.123-0.89 0.37c-0.24 0.247-0.36 0.59-0.36 1.03s0.12 0.783 0.36 1.03zm-0.96-2.9c0.493-0.493 1.11-0.74 1.85-0.74s1.353 0.247 1.84 0.74c0.493 0.493 0.74 1.117 0.74 1.87s-0.247 1.377-0.74 1.87c-0.487 0.493-1.1 0.74-1.84 0.74s-1.357-0.247-1.85-0.74c-0.487-0.493-0.73-1.117-0.73-1.87s0.243-1.377 0.73-1.87zm6.81 1.5v2.83h-1.33v-4.92h1.29v0.61c0.14-0.24 0.34-0.423 0.6-0.55s0.533-0.19 0.82-0.19c0.58 0 1.02 0.183 1.32 0.55001 0.307 0.36 0.46 0.82699 0.46 1.4v3.1h-1.33v-2.87c0-0.293-0.077-0.52999-0.23-0.70999-0.147-0.18-0.373-0.27-0.68-0.27-0.28 0-0.503 0.097-0.67 0.29s-0.25 0.437-0.25 0.73z"/></g><path d="m184.03 359.27c0.293-0.293 0.293-0.767 0-1.06l-4.773-4.773c-0.293-0.293-0.767-0.293-1.06 0s-0.293 0.767 0 1.06l4.242 4.243-4.242 4.243c-0.293 0.293-0.293 0.767 0 1.06s0.767 0.293 1.06 0zm-63.03 0.22001h0.977v-1.5h-0.977zm2.93 0h1.953v-1.5h-1.953zm3.906 0h1.953v-1.5h-1.953zm3.906 0h1.953v-1.5h-1.953zm3.906 0h1.954v-1.5h-1.954zm3.907 0h1.953v-1.5h-1.953zm3.906 0h1.953v-1.5h-1.953zm3.906 0h1.953v-1.5h-1.953zm3.906 0h1.954v-1.5h-1.954zm3.907 0h1.953v-1.5h-1.953zm3.906 0h1.953v-1.5h-1.953zm3.906 0h1.953v-1.5h-1.953zm3.906 0h1.954v-1.5h-1.954zm3.907 0h1.953v-1.5h-1.953zm3.906 0h1.953v-1.5h-1.953zm3.906 0h1.953v-1.5h-1.953zm3.906 0h0.977v-1.5h-0.977z" fill="#5e5e5e"/><path d="m184.03 382.27c0.293-0.293 0.293-0.767 0-1.06l-4.773-4.773c-0.293-0.293-0.767-0.293-1.06 0s-0.293 0.767 0 1.06l4.242 4.243-4.242 4.243c-0.293 0.293-0.293 0.767 0 1.06s0.767 0.293 1.06 0zm-63.03 0.22001h62.5v-1.5h-62.5z" fill="#1ee2c7"/><path d="m278.03 229.27c0.293-0.29301 0.293-0.767 0-1.06l-4.773-4.773c-0.293-0.29301-0.767-0.29301-1.06 0-0.293 0.293-0.293 0.76699 0 1.06l4.242 4.243-4.242 4.243c-0.293 0.29301-0.293 0.767 0 1.06 0.293 0.29301 0.767 0.29301 1.06 0zm-63.03 0.22h62.5v-1.5h-62.5z" fill="#5e5e5e"/><path d="m301.72 205.52c0.293 0.293 0.767 0.293 1.06 0l4.773-4.773c0.293-0.29301 0.293-0.767 0-1.06-0.293-0.29301-0.767-0.29301-1.06 0l-4.243 4.242-4.243-4.242c-0.293-0.29301-0.767-0.29301-1.06 0-0.293 0.293-0.293 0.76699 0 1.06zm-0.22-62.053c0 0.41399 0.336 0.75 0.75 0.75s0.75-0.33601 0.75-0.75zm1.5 1.953c0-0.415-0.336-0.75-0.75-0.75s-0.75 0.335-0.75 0.75zm-1.5 1.953c0 0.41399 0.336 0.75 0.75 0.75s0.75-0.33601 0.75-0.75zm1.5 1.953c0-0.414-0.336-0.75-0.75-0.75s-0.75 0.336-0.75 0.75zm-1.5 1.953c0 0.414 0.336 0.75 0.75 0.75s0.75-0.336 0.75-0.75zm1.5 1.953c0-0.414-0.336-0.75-0.75-0.75s-0.75 0.336-0.75 0.75zm-1.5 1.953c0 0.415 0.336 0.75 0.75 0.75s0.75-0.335 0.75-0.75zm1.5 1.953c0-0.414-0.336-0.75-0.75-0.75s-0.75 0.336-0.75 0.75zm-1.5 1.954c0 0.414 0.336 0.75 0.75 0.75s0.75-0.336 0.75-0.75zm1.5 1.953c0-0.415-0.336-0.75-0.75-0.75s-0.75 0.335-0.75 0.75zm-1.5 1.953c0 0.414 0.336 0.75 0.75 0.75s0.75-0.336 0.75-0.75zm1.5 1.953c0-0.414-0.336-0.75-0.75-0.75s-0.75 0.336-0.75 0.75zm-1.5 1.953c0 0.414 0.336 0.75 0.75 0.75s0.75-0.336 0.75-0.75zm1.5 1.953c0-0.414-0.336-0.75-0.75-0.75s-0.75 0.336-0.75 0.75zm-1.5 1.953c0 0.415 0.336 0.75 0.75 0.75s0.75-0.335 0.75-0.75zm1.5 1.953c0-0.414-0.336-0.75-0.75-0.75s-0.75 0.336-0.75 0.75zm-1.5 1.954c0 0.414 0.336 0.75 0.75 0.75s0.75-0.336 0.75-0.75zm1.5 1.953c0-0.415-0.336-0.75-0.75-0.75s-0.75 0.335-0.75 0.75zm-1.5 1.953c0 0.414 0.336 0.75 0.75 0.75s0.75-0.336 0.75-0.75zm1.5 1.953c0-0.414-0.336-0.75-0.75-0.75s-0.75 0.336-0.75 0.75zm-1.5 1.953c0 0.414 0.336 0.75 0.75 0.75s0.75-0.336 0.75-0.75zm1.5 1.953c0-0.414-0.336-0.75-0.75-0.75s-0.75 0.336-0.75 0.75zm-1.5 1.953c0 0.415 0.336 0.75 0.75 0.75s0.75-0.335 0.75-0.75zm1.5 1.953c0-0.414-0.336-0.75-0.75-0.75s-0.75 0.336-0.75 0.75zm-1.5 1.954c0 0.414 0.336 0.75 0.75 0.75s0.75-0.336 0.75-0.75zm1.5 1.953c0-0.415-0.336-0.75-0.75-0.75s-0.75 0.335-0.75 0.75zm-1.5 1.953c0 0.414 0.336 0.75 0.75 0.75s0.75-0.336 0.75-0.75zm1.5 1.953c0-0.414-0.336-0.75-0.75-0.75s-0.75 0.336-0.75 0.75zm-1.5 1.953c0 0.414 0.336 0.75 0.75 0.75s0.75-0.336 0.75-0.75zm1.5 1.953c0-0.414-0.336-0.75-0.75-0.75s-0.75 0.336-0.75 0.75zm-1.5 1.953c0 0.415 0.336 0.75 0.75 0.75s0.75-0.335 0.75-0.75zm1.5 1.953c0-0.414-0.336-0.75-0.75-0.75s-0.75 0.336-0.75 0.75zm-1.5-61.523v0.977h1.5v-0.977zm0 2.93v1.953h1.5v-1.953zm0 3.906v1.953h1.5v-1.953zm0 3.906v1.953h1.5v-1.953zm0 3.906v1.954h1.5v-1.954zm0 3.907v1.953h1.5v-1.953zm0 3.906v1.953h1.5v-1.953zm0 3.906v1.953h1.5v-1.953zm0 3.906v1.954h1.5v-1.954zm0 3.907v1.953h1.5v-1.953zm0 3.906v1.953h1.5v-1.953zm0 3.906v1.953h1.5v-1.953zm0 3.906v1.954h1.5v-1.954zm0 3.907v1.953h1.5v-1.953zm0 3.906v1.953h1.5v-1.953zm0 3.906v1.953h1.5v-1.953zm0 3.906v0.977h1.5v-0.977z" fill="#5e5e5e"/><path d="m395.03 229.27c0.293-0.29301 0.293-0.767 0-1.06l-4.773-4.773c-0.293-0.29301-0.767-0.29301-1.06 0-0.293 0.293-0.293 0.76699 0 1.06l4.242 4.243-4.242 4.243c-0.293 0.29301-0.293 0.767 0 1.06 0.293 0.29301 0.767 0.29301 1.06 0zm-63.03 0.22h62.5v-1.5h-62.5z" fill="#1ee2c7"/><path d="m246.5 12.739v290" stroke="#a4a4a4" stroke-dasharray="2, 2"/><path d="m332.97 96.708c-0.293 0.2929-0.293 0.7677 0 1.0606l4.773 4.773c0.293 0.2929 0.767 0.2929 1.06 0s0.293-0.7678 0-1.0607l-4.242-4.2426 4.242-4.2426c0.293-0.2929 0.293-0.7678 0-1.0607s-0.767-0.2929-1.06 0zm61.03 28.03-0.53 0.53zm-60.5-27.5v0.75h2e-3 0.01c9e-3 1e-4 0.024 2e-4 0.043 4e-4 0.04 4e-4 0.099 0.0013 0.179 3e-3 0.16 0.0035 0.4 0.0106 0.715 0.0247l0.067-1.4985c-0.326-0.0147-0.578-0.0221-0.749-0.0258-0.085-0.0019-0.151-0.0028-0.196-0.0033-0.022-2e-4 -0.039-4e-4 -0.051-4e-4 -6e-3 -1e-4 -0.011-1e-4 -0.014-1e-4h-4e-3 -1e-3 -1e-3v0.75zm2.916 0.9074c0.577 0.0483 1.234 0.1115 1.963 0.1942l0.169-1.4904c-0.744-0.0844-1.415-0.1491-2.007-0.1986zm3.943 0.4455c0.614 0.086 1.263 0.1843 1.946 0.2965l0.243-1.4801c-0.694-0.1142-1.356-0.2143-1.981-0.3019zm3.894 0.6403c0.627 0.1179 1.275 0.247 1.944 0.3883l0.31-1.4676c-0.68-0.1437-1.339-0.2749-1.976-0.3948zm3.879 0.8192c0.627 0.1467 1.27 0.304 1.926 0.4724l0.373-1.453c-0.667-0.1711-1.32-0.3308-1.957-0.48zm3.842 0.9856c0.624 0.1744 1.26 0.3588 1.905 0.5538l0.434-1.436c-0.656-0.198-1.301-0.3853-1.936-0.5625zm3.801 1.1479c0.62 0.20141 1.249 0.4125 1.884 0.6337l0.493-1.4167c-0.645-0.2246-1.283-0.43899-1.913-0.6436zm3.743 1.3024c0.611 0.22669 1.227 0.46269 1.849 0.7085l0.552-1.3951c-0.632-0.2496-1.258-0.4893-1.878-0.7196zm3.687 1.457c0.605 0.25361 1.214 0.5164 1.828 0.7888l0.609-1.3709c-0.623-0.2766-1.242-0.5436-1.856-0.8012zm3.625 1.6097c0.592 0.27761 1.187 0.5642 1.784 0.86l0.666-1.3443c-0.607-0.3005-1.212-0.5916-1.812-0.8736zm3.556 1.7604c0.58 0.3027 1.163 0.61419 1.748 0.93479l0.721-1.3151c-0.594-0.3258-1.186-0.6422-1.775-0.9497zm3.472 1.9044c0.569 0.3279 1.14 0.66451 1.712 1.0102l0.776-1.2836c-0.581-0.3512-1.161-0.6932-1.739-1.0263zm3.396 2.0531c0.553 0.3504 1.106 0.70911 1.66 1.0771l0.83-1.2496c-0.563-0.3737-1.125-0.73839-1.687-1.0945zm3.307 2.1951c0.536 0.373 1.073 0.755 1.61 1.145l0.882-1.214c-0.546-0.396-1.091-0.784-1.636-1.162zm3.202 2.327c0.523 0.398 1.046 0.804 1.569 1.218l0.932-1.175c-0.531-0.421-1.062-0.83299-1.594-1.237zm3.105 2.463c0.507 0.42 1.014 0.849 1.52 1.286l0.981-1.135c-0.514-0.444-1.029-0.879-1.545-1.306zm3 2.592c0.488 0.441 0.976 0.889 1.462 1.346l1.027-1.093c-0.494-0.464-0.989-0.92-1.485-1.367zm2.891 2.717c0.237 0.232 0.474 0.467 0.711 0.703l1.06-1.06c-0.24-0.241-0.481-0.479-0.722-0.715zm0.711 0.703c0.23 0.231 0.459 0.463 0.686 0.697l1.076-1.045c-0.232-0.239-0.466-0.476-0.702-0.712zm2.026 2.116c0.441 0.481 0.874 0.967 1.3 1.458l1.133-0.983c-0.435-0.502-0.878-0.998-1.328-1.489zm2.559 2.95c0.414 0.504 0.821 1.013 1.221 1.527l1.184-0.921c-0.408-0.524-0.823-1.044-1.246-1.558zm2.4 3.083c0.388 0.525 0.769 1.055 1.143 1.589l1.228-0.861c-0.381-0.543-0.769-1.083-1.164-1.619zm2.245 3.203c0.362 0.544 0.717 1.091 1.065 1.642l1.268-0.802c-0.354-0.56-0.716-1.117-1.084-1.671zm2.092 3.307c0.337 0.56 0.667 1.123 0.991 1.689l1.302-0.746c-0.329-0.574-0.665-1.147-1.007-1.716zm1.946 3.399c0.312 0.57301 0.618 1.15 0.918 1.728l1.332-0.691c-0.305-0.587-0.616-1.172-0.933-1.755zm1.804 3.477c0.289 0.58601 0.572 1.174 0.849 1.762l1.357-0.638c-0.281-0.597-0.568-1.193-0.861-1.788zm1.668 3.547c0.268 0.59701 0.529 1.196 0.785 1.794l1.379-0.588c-0.259-0.607-0.524-1.213-0.795-1.819zm1.539 3.606c0.247 0.608 0.488 1.216 0.723 1.824l1.399-0.542c-0.238-0.61501-0.482-1.231-0.733-1.847zm1.414 3.656c0.228 0.618 0.449 1.235 0.665 1.851l1.416-0.496c-0.219-0.623-0.443-1.248-0.673-1.873zm1.297 3.703c0.209 0.625 0.411 1.249 0.608 1.871l1.43-0.453c-0.199-0.628-0.404-1.259-0.615-1.892zm1.186 3.746c0.189 0.63 0.373 1.257 0.55 1.881l1.443-0.411c-0.18-0.631-0.365-1.264-0.556-1.901zm1.077 3.779c0.171 0.636 0.337 1.267 0.497 1.894l1.454-0.371c-0.162-0.63301-0.33-1.272-0.503-1.914zm0.971 3.802c0.155 0.64501 0.305 1.284 0.449 1.917l1.462-0.33299c-0.145-0.63901-0.296-1.285-0.453-1.936zm0.87 3.829c0.139 0.649 0.272 1.291 0.399 1.924l1.471-0.295c-0.128-0.64-0.263-1.288-0.403-1.943zm0.775 3.859c0.123 0.654 0.239 1.298 0.35 1.931l1.478-0.258c-0.112-0.639-0.23-1.289-0.354-1.949zm0.675 3.858c0.107 0.664 0.208 1.313 0.303 1.947l1.483-0.222c-0.095-0.64-0.197-1.295-0.306-1.965zm0.582 3.898c0.092 0.672 0.177 1.323 0.255 1.952l1.488-0.185c-0.079-0.635-0.164-1.292-0.257-1.97zm0.484 3.904c0.076 0.685 0.143 1.337 0.203 1.953l1.493-0.145c-0.061-0.623-0.129-1.281-0.205-1.973zm0.378 3.9c0.061 0.73 0.109 1.387 0.147 1.964l1.497-0.099c-0.039-0.586-0.088-1.251-0.149-1.989zm0.258 3.924c0.014 0.31 0.022 0.546 0.027 0.704 3e-3 0.079 5e-3 0.139 6e-3 0.178 0 0.02 1e-3 0.035 1e-3 0.044v0.011 2e-3 1e-3 -1e-3l0.75-0.015c0.75-0.015 0.75-0.016 0.75-0.016v-1e-3 -3e-3c0-3e-3 0-8e-3 -1e-3 -0.013 0-0.011 0-0.027-1e-3 -0.049-1e-3 -0.042-3e-3 -0.105-5e-3 -0.187-6e-3 -0.164-0.015-0.406-0.029-0.722z" fill="#5e5e5e"/><path d="m284.38 120.34-1.24 0.38c-0.047-0.253-0.174-0.483-0.38-0.69-0.207-0.207-0.51-0.31-0.91-0.31-0.327 0-0.594 0.09-0.8 0.27-0.207 0.173-0.31 0.383-0.31 0.63 0 0.433 0.256 0.7 0.77 0.8l0.99 0.19c0.626 0.12 1.113 0.37 1.46 0.75 0.346 0.38 0.52 0.827 0.52 1.34 0 0.587-0.234 1.1-0.7 1.54-0.46 0.433-1.08 0.65-1.86 0.65-0.447 0-0.85-0.067-1.21-0.2s-0.65-0.31-0.87-0.53c-0.22-0.227-0.394-0.463-0.52-0.71-0.12-0.253-0.194-0.513-0.22-0.78l1.28-0.34c0.033 0.38 0.18 0.697 0.44 0.95 0.266 0.253 0.636 0.38 1.11 0.38 0.36 0 0.64-0.08 0.84-0.24 0.206-0.16 0.31-0.37 0.31-0.63 0-0.20699-0.077-0.38299-0.23-0.53-0.147-0.153-0.357-0.257-0.63-0.31l-0.99-0.2c-0.574-0.12-1.027-0.357-1.36-0.71-0.334-0.35299-0.5-0.793-0.5-1.32 0-0.627 0.24-1.153 0.72-1.58 0.486-0.42701 1.07-0.64 1.75-0.64 0.406 0 0.77 0.057 1.09 0.17s0.576 0.267 0.77 0.46c0.193 0.18699 0.343 0.37999 0.45 0.57999 0.106 0.20001 0.183 0.41 0.23 0.63zm4.258 5.4c-0.027-0.133-0.04-0.31001-0.04-0.53001-0.127 0.22-0.317 0.387-0.57 0.5-0.247 0.107-0.51 0.16-0.79 0.16-0.58 0-1.037-0.183-1.37-0.55-0.333-0.373-0.5-0.837-0.5-1.39v-3.11h1.33v2.84c0 0.293 0.077 0.533 0.23 0.72 0.153 0.18 0.377 0.26999 0.67 0.26999 0.287 0 0.513-0.087 0.68-0.26 0.167-0.18 0.25-0.417 0.25-0.71v-2.86h1.33v4.03c0 0.31301 0.017 0.61 0.05 0.89001zm3.969 1.9h-1.33v-6.82h1.29v0.6c0.12-0.2 0.314-0.367 0.58-0.5 0.267-0.14 0.577-0.21 0.93-0.21 0.7 0 1.254 0.24 1.66 0.72 0.407 0.473 0.61 1.087 0.61 1.84s-0.216 1.373-0.65 1.86c-0.426 0.487-0.983 0.73-1.67 0.73-0.653 0-1.126-0.2-1.42-0.6zm2.08-3.34c0.234-0.253 0.35-0.59301 0.35-1.02 0-0.427-0.116-0.763-0.35-1.01-0.226-0.247-0.516-0.37001-0.87-0.37001-0.353 0-0.646 0.127-0.88 0.38-0.233 0.247-0.35 0.58-0.35 1s0.117 0.757 0.35 1.01c0.234 0.253 0.527 0.38 0.88 0.38 0.354 0 0.644-0.123 0.87-0.36999zm3.683-1.58h2.2c-0.013-0.273-0.113-0.503-0.3-0.69-0.18-0.187-0.446-0.28-0.8-0.28-0.32 0-0.58 0.1-0.78 0.3s-0.306 0.423-0.32 0.67zm2.33 1.28 1.11 0.33c-0.133 0.453-0.396 0.827-0.79 1.12-0.386 0.293-0.87 0.44-1.45 0.44-0.706 0-1.306-0.237-1.8-0.71-0.493-0.48-0.74-1.12-0.74-1.92 0-0.76 0.24-1.38 0.72-1.86 0.48-0.487 1.047-0.73 1.7-0.73 0.76 0 1.354 0.227 1.78 0.68 0.434 0.453 0.65 1.077 0.65 1.87 0 0.053-3e-3 0.113-0.01 0.18v0.16l-0.01 0.07h-3.52c0.014 0.32 0.14 0.587 0.38 0.8s0.527 0.32 0.86 0.32c0.567 0 0.94-0.25 1.12-0.75zm5.228-3.2v1.34c-0.134-0.027-0.267-0.04-0.4-0.04-0.38 0-0.687 0.11-0.92 0.33-0.234 0.213-0.35 0.567-0.35 1.06v2.25h-1.33v-4.92h1.29v0.73001c0.24-0.51301 0.706-0.77 1.4-0.77 0.073 0 0.176 7e-3 0.31 0.02zm3.411-1.2c-0.187 0-0.35 0.053-0.49 0.16-0.134 0.1-0.2 0.273-0.2 0.52v0.54h1.11v1.14h-1.11v3.78h-1.34v-3.78h-0.82v-1.14h0.82v-0.56c0-0.553 0.16-0.997 0.48-1.33 0.326-0.333 0.763-0.5 1.31-0.5 0.293 0 0.513 0.033 0.66 0.1v1.12c-0.114-0.033-0.254-0.05-0.42-0.05zm0.926 4.8c0-0.42 0.136-0.757 0.41-1.01 0.273-0.253 0.626-0.413 1.06-0.48l1.21-0.18c0.246-0.033 0.37-0.15 0.37-0.35 0-0.187-0.074-0.34-0.22-0.46-0.14-0.12-0.344-0.18-0.61-0.18-0.28 0-0.504 0.077-0.67 0.23-0.16 0.153-0.25 0.343-0.27 0.57l-1.18-0.25c0.046-0.427 0.256-0.803 0.63-1.13 0.373-0.327 0.866-0.49 1.48-0.49 0.733 0 1.273 0.177 1.62 0.53 0.346 0.347 0.52 0.79301 0.52 1.34v2.42c0 0.29301 0.02 0.553 0.06 0.78001h-1.22c-0.034-0.14701-0.05-0.34301-0.05-0.59001-0.314 0.487-0.797 0.73001-1.45 0.73001-0.507 0-0.917-0.14701-1.23-0.44-0.307-0.29301-0.46-0.64-0.46-1.04zm1.97 0.49c0.313 0 0.57-0.087 0.77-0.26 0.206-0.18 0.31-0.473 0.31-0.88v-0.22l-1.11 0.17c-0.407 0.06-0.61 0.267-0.61 0.62 0 0.16 0.056 0.297 0.17 0.41 0.113 0.107 0.27 0.16 0.47 0.16zm5.911-2.99c-0.354 0-0.65 0.12301-0.89 0.37001s-0.36 0.583-0.36 1.01 0.12 0.767 0.36 1.02c0.246 0.247 0.546 0.37 0.9 0.37 0.313 0 0.563-0.08 0.75-0.24 0.186-0.167 0.313-0.363 0.38-0.59l1.17 0.39c-0.12 0.453-0.38 0.843-0.78 1.17s-0.907 0.49-1.52 0.49c-0.734 0-1.35-0.247-1.85-0.74-0.494-0.5-0.74-1.123-0.74-1.87 0-0.753 0.243-1.377 0.73-1.87 0.493-0.493 1.1-0.74 1.82-0.74 0.626 0 1.14 0.163 1.54 0.49 0.4 0.31999 0.656 0.70999 0.77 1.17l-1.19 0.4c-0.16-0.553-0.524-0.83-1.09-0.83001zm4.209 0.82h2.2c-0.014-0.273-0.114-0.503-0.3-0.69-0.18-0.187-0.447-0.28-0.8-0.28-0.32 0-0.58 0.1-0.78 0.3s-0.307 0.423-0.32 0.67zm2.33 1.28 1.11 0.33c-0.134 0.453-0.397 0.827-0.79 1.12-0.387 0.29301-0.87 0.44-1.45 0.44-0.707 0-1.307-0.237-1.8-0.71-0.494-0.48-0.74-1.12-0.74-1.92 0-0.76 0.24-1.38 0.72-1.86 0.48-0.48699 1.046-0.73 1.7-0.73 0.76 0 1.353 0.227 1.78 0.68 0.433 0.45301 0.65 1.077 0.65 1.87 0 0.053-4e-3 0.113-0.01 0.18v0.16l-0.01 0.07h-3.52c0.013 0.31999 0.14 0.587 0.38 0.79999 0.24 0.213 0.526 0.32 0.86 0.32 0.566 0 0.94-0.25 1.12-0.75z" fill="#000"/><g stroke="#766dee" stroke-linecap="round" stroke-linejoin="round" stroke-miterlimit="10" stroke-width="2"><path d="m298.32 97.598 3.78 3.7798 11.817-11.817c0.501-0.5014 0.783-1.1812 0.783-1.8899 0-0.7088-0.282-1.3886-0.783-1.8899-0.501-0.501-1.181-0.7825-1.89-0.7825s-1.388 0.2815-1.89 0.7825z"/><path d="m300.84 95.078v-6.2996l-5.039-5.0397-3.78 3.7798 5.04 5.0397"/><path d="m307.14 96.338v6.2997l5.04 5.0396 3.779-3.7797-5.039-5.0397"/><path d="m298.32 110.2c-2.339 0-4.582-0.92919-6.236-2.5832-1.654-1.654-2.583-3.8972-2.583-6.2363"/><path d="m298.32 105.16c-1.002 0-1.963-0.39821-2.672-1.1071-0.709-0.70879-1.107-1.6702-1.107-2.6727"/></g><g fill="#5e5e5e"><path d="m275.23 265.74-1.39-2.73h-0.72v2.73h-1.39v-7.09h2.77c0.68 0 1.227 0.207 1.64 0.62s0.62 0.933 0.62 1.56c0 0.493-0.137 0.92-0.41 1.28-0.267 0.353-0.633 0.59699-1.1 0.72999l1.52 2.9zm-2.11-3.92h1.12c0.347 0 0.617-0.09 0.81-0.26999 0.2-0.18001 0.3-0.41701 0.3-0.71001 0-0.3-0.1-0.53999-0.3-0.72-0.193-0.18-0.463-0.27-0.81-0.27h-1.12zm7.873 3.92c-0.027-0.13301-0.04-0.31001-0.04-0.53001-0.127 0.22-0.317 0.387-0.57 0.5-0.247 0.107-0.51 0.16-0.79 0.16-0.58 0-1.037-0.18299-1.37-0.55-0.334-0.373-0.5-0.837-0.5-1.39v-3.11h1.33v2.84c0 0.293 0.076 0.533 0.23 0.72 0.153 0.18 0.376 0.27 0.67 0.27 0.286 0 0.513-0.087 0.68-0.26 0.166-0.18 0.25-0.41699 0.25-0.71v-2.86h1.33v4.03c0 0.313 0.016 0.61 0.05 0.89zm3.969-2.83v2.83h-1.33v-4.92h1.29v0.61c0.14-0.24 0.34-0.423 0.6-0.55s0.533-0.19 0.82-0.19c0.58 0 1.02 0.183 1.32 0.55001 0.307 0.36 0.46 0.82699 0.46 1.4v3.1h-1.33v-2.87c0-0.293-0.077-0.52999-0.23-0.70999-0.147-0.18-0.373-0.27001-0.68-0.27001-0.28 0-0.503 0.097-0.67 0.29s-0.25 0.43701-0.25 0.73zm8.681 4.77h-1.41l1.16-2.56-2.09-4.3h1.49l1.31 2.88 1.21-2.88h1.42zm4.981-3.37c0.247 0.24701 0.543 0.37 0.89 0.37s0.64-0.12299 0.88-0.37c0.247-0.247 0.37-0.59 0.37-1.03s-0.123-0.78299-0.37-1.03c-0.24-0.247-0.533-0.37-0.88-0.37s-0.643 0.123-0.89 0.37c-0.24 0.24701-0.36 0.59-0.36 1.03s0.12 0.783 0.36 1.03zm-0.96-2.9c0.493-0.493 1.11-0.74 1.85-0.74s1.353 0.247 1.84 0.74c0.493 0.493 0.74 1.117 0.74 1.87s-0.247 1.377-0.74 1.87c-0.487 0.493-1.1 0.74-1.84 0.74s-1.357-0.247-1.85-0.74c-0.487-0.493-0.73-1.117-0.73-1.87 0-0.753 0.243-1.377 0.73-1.87zm8.68 4.33c-0.026-0.13301-0.04-0.31001-0.04-0.53001-0.126 0.22-0.316 0.387-0.57 0.5-0.246 0.107-0.51 0.16-0.79 0.16-0.58 0-1.036-0.18299-1.37-0.55-0.333-0.373-0.5-0.837-0.5-1.39v-3.11h1.33v2.84c0 0.293 0.077 0.533 0.23 0.72 0.154 0.18 0.377 0.27 0.67 0.27 0.287 0 0.514-0.087 0.68-0.26 0.167-0.18 0.25-0.41699 0.25-0.71v-2.86h1.33v4.03c0 0.313 0.017 0.61 0.05 0.89zm5.64-4.94v1.34c-0.134-0.027-0.267-0.04-0.4-0.04-0.38 0-0.687 0.11-0.92 0.32999-0.234 0.21301-0.35 0.56701-0.35 1.06v2.25h-1.33v-4.92h1.29v0.73001c0.24-0.51301 0.706-0.77001 1.4-0.77001 0.073 0 0.176 7e-3 0.31 0.02zm8.287 4.94-0.59-1.62h-2.88l-0.59 1.62h-1.46l2.72-7.09h1.6l2.7 7.09zm-2.03-5.56-0.98 2.68h1.96zm5.647 7.46h-1.33v-6.82h1.29v0.60001c0.12-0.2 0.313-0.36701 0.58-0.5 0.266-0.14 0.576-0.21001 0.93-0.21001 0.7 0 1.253 0.24 1.66 0.72 0.406 0.47301 0.61 1.087 0.61 1.84s-0.217 1.373-0.65 1.86c-0.427 0.48701-0.984 0.73001-1.67 0.73001-0.654 0-1.127-0.2-1.42-0.60001zm2.08-3.34c0.233-0.253 0.35-0.59301 0.35-1.02 0-0.42699-0.117-0.763-0.35-1.01-0.227-0.247-0.517-0.37-0.87-0.37-0.354 0-0.647 0.127-0.88 0.38-0.234 0.247-0.35 0.58001-0.35 1 0 0.42 0.116 0.757 0.35 1.01 0.233 0.253 0.526 0.38 0.88 0.38 0.353 0 0.643-0.123 0.87-0.36999zm4.043 3.34h-1.33v-6.82h1.29v0.60001c0.12-0.2 0.313-0.36701 0.58-0.5 0.267-0.14 0.577-0.21001 0.93-0.21001 0.7 0 1.253 0.24 1.66 0.72 0.407 0.47301 0.61 1.087 0.61 1.84s-0.217 1.373-0.65 1.86c-0.427 0.48701-0.983 0.73001-1.67 0.73001-0.653 0-1.127-0.2-1.42-0.60001zm2.08-3.34c0.233-0.253 0.35-0.59301 0.35-1.02 0-0.42699-0.117-0.763-0.35-1.01-0.227-0.247-0.517-0.37-0.87-0.37s-0.647 0.127-0.88 0.38c-0.233 0.247-0.35 0.58001-0.35 1 0 0.42 0.117 0.757 0.35 1.01s0.527 0.38 0.88 0.38 0.643-0.123 0.87-0.36999z"/><path d="m359.41 25.739-0.59-1.62h-2.88l-0.59 1.62h-1.46l2.72-7.09h1.6l2.7 7.09zm-2.03-5.56-0.98 2.68h1.96zm5.648 7.46h-1.33v-6.82h1.29v0.6c0.12-0.2 0.313-0.36667 0.58-0.5 0.266-0.14 0.576-0.21 0.93-0.21 0.7 0 1.253 0.24 1.66 0.72 0.406 0.47333 0.61 1.0867 0.61 1.84 0 0.7533-0.217 1.3733-0.65 1.86-0.427 0.4867-0.984 0.73-1.67 0.73-0.654 0-1.127-0.2-1.42-0.6zm2.08-3.34c0.233-0.2533 0.35-0.5933 0.35-1.02s-0.117-0.76333-0.35-1.01c-0.227-0.24667-0.517-0.37-0.87-0.37-0.354 0-0.647 0.12667-0.88 0.38-0.234 0.24667-0.35 0.58-0.35 1s0.116 0.7567 0.35 1.01c0.233 0.2533 0.526 0.38 0.88 0.38 0.353 0 0.643-0.1233 0.87-0.37zm4.043 3.34h-1.33v-6.82h1.29v0.6c0.12-0.2 0.313-0.36667 0.58-0.5 0.266-0.14 0.576-0.21 0.93-0.21 0.7 0 1.253 0.24 1.66 0.72 0.406 0.47333 0.61 1.0867 0.61 1.84 0 0.7533-0.217 1.3733-0.65 1.86-0.427 0.4867-0.984 0.73-1.67 0.73-0.654 0-1.127-0.2-1.42-0.6zm2.08-3.34c0.233-0.2533 0.35-0.5933 0.35-1.02s-0.117-0.76333-0.35-1.01c-0.227-0.24667-0.517-0.37-0.87-0.37-0.354 0-0.647 0.12667-0.88 0.38-0.234 0.24667-0.35 0.58-0.35 1s0.116 0.7567 0.35 1.01c0.233 0.2533 0.526 0.38 0.88 0.38 0.353 0 0.643-0.1233 0.87-0.37zm8.183-3.5v1.34c-0.133-0.02667-0.266-0.04-0.4-0.04-0.38 0-0.686 0.11-0.92 0.33-0.233 0.21333-0.35 0.5667-0.35 1.06v2.25h-1.33v-4.92h1.29v0.73c0.24-0.51333 0.707-0.77 1.4-0.77 0.074 0 0.177 0.0067 0.31 0.02zm4.146 4.94c-0.027-0.1333-0.04-0.31-0.04-0.53-0.127 0.22-0.317 0.3867-0.57 0.5-0.247 0.1067-0.51 0.16-0.79 0.16-0.58 0-1.037-0.1833-1.37-0.55-0.333-0.3733-0.5-0.8367-0.5-1.39v-3.11h1.33v2.84c0 0.2933 0.077 0.5333 0.23 0.72 0.153 0.18 0.377 0.27 0.67 0.27 0.287 0 0.513-0.0867 0.68-0.26 0.167-0.18 0.25-0.4167 0.25-0.71v-2.86h1.33v4.03c0 0.3133 0.017 0.61 0.05 0.89zm3.969-2.83v2.83h-1.33v-4.92h1.29v0.61c0.14-0.24 0.34-0.42333 0.6-0.55s0.534-0.19 0.82-0.19c0.58 0 1.02 0.18333 1.32 0.55 0.307 0.36 0.46 0.82667 0.46 1.4v3.1h-1.33v-2.87c0-0.29333-0.076-0.53-0.23-0.71-0.146-0.18-0.373-0.27-0.68-0.27-0.28 0-0.503 0.09667-0.67 0.29-0.166 0.19333-0.25 0.43667-0.25 0.73zm6.15-3.56v1.47h0.99v1.18h-0.99v2.06c0 0.2067 0.047 0.3533 0.14 0.44 0.094 0.0867 0.24 0.13 0.44 0.13 0.18 0 0.317-0.0133 0.41-0.04v1.1c-0.193 0.08-0.443 0.12-0.75 0.12-0.48 0-0.86-0.1333-1.14-0.4-0.28-0.2733-0.42-0.6467-0.42-1.12v-2.29h-0.89v-1.18h0.25c0.247 0 0.434-0.07 0.56-0.21 0.134-0.14667 0.2-0.33667 0.2-0.57v-0.69zm3.45 6.39h-1.33v-4.92h1.33zm-1.49-6.53c0-0.22667 0.08-0.42 0.24-0.58 0.16-0.16667 0.353-0.25 0.58-0.25s0.42 0.08 0.58 0.24 0.24 0.35667 0.24 0.59c0 0.22-0.08 0.41-0.24 0.57s-0.353 0.24-0.58 0.24-0.42-0.08-0.58-0.24-0.24-0.35-0.24-0.57zm4.244 6.53h-1.33v-4.92h1.27v0.6c0.127-0.22667 0.327-0.40667 0.6-0.54s0.553-0.2 0.84-0.2c0.713 0 1.2 0.27333 1.46 0.82 0.353-0.54667 0.873-0.82 1.56-0.82 0.5 0 0.92 0.15667 1.26 0.47 0.347 0.31333 0.52 0.78 0.52 1.4v3.19h-1.29v-2.92c0-0.28-0.073-0.50333-0.22-0.67-0.14-0.17333-0.357-0.26-0.65-0.26-0.273 0-0.493 0.09333-0.66 0.28s-0.25 0.41667-0.25 0.69v2.88h-1.32v-2.92c0-0.28-0.073-0.50333-0.22-0.67-0.147-0.17333-0.363-0.26-0.65-0.26-0.28 0-0.503 0.09333-0.67 0.28-0.167 0.18-0.25 0.41-0.25 0.69zm8.497-3.02h2.2c-0.013-0.27333-0.113-0.50333-0.3-0.69-0.18-0.18667-0.446-0.28-0.8-0.28-0.32 0-0.58 0.1-0.78 0.3s-0.306 0.42333-0.32 0.67zm2.33 1.28 1.11 0.33c-0.133 0.4533-0.396 0.8267-0.79 1.12-0.386 0.2933-0.87 0.44-1.45 0.44-0.706 0-1.306-0.2367-1.8-0.71-0.493-0.48-0.74-1.12-0.74-1.92 0-0.76 0.24-1.38 0.72-1.86 0.48-0.48667 1.047-0.73 1.7-0.73 0.76 0 1.354 0.22667 1.78 0.68 0.434 0.45333 0.65 1.0767 0.65 1.87 0 0.0533-3e-3 0.1133-0.01 0.18v0.16l-0.01 0.07h-3.52c0.014 0.32 0.14 0.5867 0.38 0.8s0.527 0.32 0.86 0.32c0.567 0 0.94-0.25 1.12-0.75z"/><path d="m67.135 25.739-0.59-1.62h-2.88l-0.59 1.62h-1.46l2.72-7.09h1.6l2.7 7.09zm-2.03-5.56-0.98 2.68h1.96zm5.6473 7.46h-1.33v-6.82h1.29v0.6c0.12-0.2 0.3133-0.36667 0.58-0.5 0.2667-0.14 0.5767-0.21 0.93-0.21 0.7 0 1.2533 0.24 1.66 0.72 0.4067 0.47333 0.61 1.0867 0.61 1.84 0 0.7533-0.2167 1.3733-0.65 1.86-0.4267 0.4867-0.9833 0.73-1.67 0.73-0.6533 0-1.1267-0.2-1.42-0.6zm2.08-3.34c0.2333-0.2533 0.35-0.5933 0.35-1.02s-0.1167-0.76333-0.35-1.01c-0.2267-0.24667-0.5167-0.37-0.87-0.37s-0.6467 0.12667-0.88 0.38c-0.2333 0.24667-0.35 0.58-0.35 1s0.1167 0.7567 0.35 1.01 0.5267 0.38 0.88 0.38 0.6433-0.1233 0.87-0.37zm4.0431 3.34h-1.33v-6.82h1.29v0.6c0.12-0.2 0.3133-0.36667 0.58-0.5 0.2666-0.14 0.5766-0.21 0.93-0.21 0.7 0 1.2533 0.24 1.66 0.72 0.4066 0.47333 0.61 1.0867 0.61 1.84 0 0.7533-0.2167 1.3733-0.65 1.86-0.4267 0.4867-0.9834 0.73-1.67 0.73-0.6534 0-1.1267-0.2-1.42-0.6zm2.08-3.34c0.2333-0.2533 0.35-0.5933 0.35-1.02s-0.1167-0.76333-0.35-1.01c-0.2267-0.24667-0.5167-0.37-0.87-0.37-0.3534 0-0.6467 0.12667-0.88 0.38-0.2334 0.24667-0.35 0.58-0.35 1s0.1166 0.7567 0.35 1.01c0.2333 0.2533 0.5266 0.38 0.88 0.38 0.3533 0 0.6433-0.1233 0.87-0.37zm9.8737-5.8v6.35c0 0.3267 0.0133 0.6233 0.04 0.89h-1.27c-0.0333-0.1667-0.05-0.3567-0.05-0.57-0.1133 0.2067-0.2933 0.3733-0.54 0.5-0.24 0.1267-0.52 0.19-0.84 0.19-0.7 0-1.2767-0.2433-1.73-0.73-0.4467-0.4933-0.67-1.1133-0.67-1.86 0-0.72667 0.22-1.3367 0.66-1.83 0.4467-0.49333 1.0133-0.74 1.7-0.74 0.7067 0 1.17 0.20333 1.39 0.61v-2.81zm-3.72 4.77c0 0.4333 0.1133 0.7767 0.34 1.03 0.2267 0.2467 0.52 0.37 0.88 0.37 0.3533 0 0.6433-0.1267 0.87-0.38s0.34-0.5967 0.34-1.03c0-0.4267-0.1133-0.76-0.34-1-0.2267-0.24667-0.5167-0.37-0.87-0.37s-0.6467 0.12333-0.88 0.37c-0.2267 0.24667-0.34 0.5833-0.34 1.01zm6.1328-0.55h2.2c-0.0133-0.27333-0.1133-0.50333-0.3-0.69-0.18-0.18667-0.4466-0.28-0.8-0.28-0.32 0-0.58 0.1-0.78 0.3s-0.3066 0.42333-0.32 0.67zm2.33 1.28 1.11 0.33c-0.1333 0.4533-0.3966 0.8267-0.79 1.12-0.3866 0.2933-0.87 0.44-1.45 0.44-0.7066 0-1.3066-0.2367-1.8-0.71-0.4933-0.48-0.74-1.12-0.74-1.92 0-0.76 0.24-1.38 0.72-1.86 0.48-0.48667 1.0467-0.73 1.7-0.73 0.76 0 1.3534 0.22667 1.78 0.68 0.4334 0.45333 0.65 1.0767 0.65 1.87 0 0.0533-0.0033 0.1133-0.01 0.18v0.16l-0.01 0.07h-3.52c0.0134 0.32 0.14 0.5867 0.38 0.8s0.5267 0.32 0.86 0.32c0.5667 0 0.94-0.25 1.12-0.75zm6.7697-3.18-1.91 4.92h-1.33l-2.01-4.92h1.46l1.22 3.3 1.17-3.3zm1.6327 1.9h2.2c-0.0133-0.27333-0.1133-0.50333-0.3-0.69-0.18-0.18667-0.4466-0.28-0.8-0.28-0.32 0-0.58 0.1-0.78 0.3s-0.3066 0.42333-0.32 0.67zm2.33 1.28 1.11 0.33c-0.133 0.4533-0.397 0.8267-0.79 1.12-0.3866 0.2933-0.87 0.44-1.45 0.44-0.7066 0-1.3066-0.2367-1.8-0.71-0.4933-0.48-0.74-1.12-0.74-1.92 0-0.76 0.24-1.38 0.72-1.86 0.48-0.48667 1.0467-0.73 1.7-0.73 0.76 0 1.3534 0.22667 1.78 0.68 0.433 0.45333 0.65 1.0767 0.65 1.87 0 0.0533-3e-3 0.1133-0.01 0.18v0.16l-0.01 0.07h-3.52c0.0134 0.32 0.14 0.5867 0.38 0.8s0.5267 0.32 0.86 0.32c0.5667 0 0.94-0.25 1.12-0.75zm3.557 1.74h-1.33v-7.24h1.33zm2.744-1.43c0.247 0.2467 0.544 0.37 0.89 0.37 0.347 0 0.64-0.1233 0.88-0.37 0.247-0.2467 0.37-0.59 0.37-1.03s-0.123-0.78333-0.37-1.03c-0.24-0.24667-0.533-0.37-0.88-0.37-0.346 0-0.643 0.12333-0.89 0.37-0.24 0.24667-0.36 0.59-0.36 1.03s0.12 0.7833 0.36 1.03zm-0.96-2.9c0.494-0.49333 1.11-0.74 1.85-0.74s1.354 0.24667 1.84 0.74c0.494 0.49333 0.74 1.1167 0.74 1.87 0 0.7533-0.246 1.3767-0.74 1.87-0.486 0.4933-1.1 0.74-1.84 0.74s-1.356-0.2467-1.85-0.74c-0.486-0.4933-0.73-1.1167-0.73-1.87 0-0.75333 0.244-1.3767 0.73-1.87zm6.81 6.23h-1.33v-6.82h1.29v0.6c0.12-0.2 0.313-0.36667 0.58-0.5 0.267-0.14 0.577-0.21 0.93-0.21 0.7 0 1.253 0.24 1.66 0.72 0.407 0.47333 0.61 1.0867 0.61 1.84 0 0.7533-0.217 1.3733-0.65 1.86-0.427 0.4867-0.983 0.73-1.67 0.73-0.653 0-1.127-0.2-1.42-0.6zm2.08-3.34c0.233-0.2533 0.35-0.5933 0.35-1.02s-0.117-0.76333-0.35-1.01c-0.227-0.24667-0.517-0.37-0.87-0.37s-0.647 0.12667-0.88 0.38c-0.233 0.24667-0.35 0.58-0.35 1s0.117 0.7567 0.35 1.01 0.527 0.38 0.88 0.38 0.643-0.1233 0.87-0.37zm4.043 1.44h-1.33v-4.92h1.27v0.6c0.127-0.22667 0.327-0.40667 0.6-0.54 0.274-0.13333 0.554-0.2 0.84-0.2 0.714 0 1.2 0.27333 1.46 0.82 0.354-0.54667 0.874-0.82 1.56-0.82 0.5 0 0.92 0.15667 1.26 0.47 0.347 0.31333 0.52 0.78 0.52 1.4v3.19h-1.29v-2.92c0-0.28-0.073-0.50333-0.22-0.67-0.14-0.17333-0.356-0.26-0.65-0.26-0.273 0-0.493 0.09333-0.66 0.28-0.166 0.18667-0.25 0.41667-0.25 0.69v2.88h-1.32v-2.92c0-0.28-0.073-0.50333-0.22-0.67-0.146-0.17333-0.363-0.26-0.65-0.26-0.28 0-0.503 0.09333-0.67 0.28-0.166 0.18-0.25 0.41-0.25 0.69zm8.498-3.02h2.2c-0.014-0.27333-0.114-0.50333-0.3-0.69-0.18-0.18667-0.447-0.28-0.8-0.28-0.32 0-0.58 0.1-0.78 0.3s-0.307 0.42333-0.32 0.67zm2.33 1.28 1.11 0.33c-0.134 0.4533-0.397 0.8267-0.79 1.12-0.387 0.2933-0.87 0.44-1.45 0.44-0.707 0-1.307-0.2367-1.8-0.71-0.494-0.48-0.74-1.12-0.74-1.92 0-0.76 0.24-1.38 0.72-1.86 0.48-0.48667 1.046-0.73 1.7-0.73 0.76 0 1.353 0.22667 1.78 0.68 0.433 0.45333 0.65 1.0767 0.65 1.87 0 0.0533-4e-3 0.1133-0.01 0.18v0.16l-0.01 0.07h-3.52c0.013 0.32 0.14 0.5867 0.38 0.8s0.526 0.32 0.86 0.32c0.566 0 0.94-0.25 1.12-0.75zm3.557-1.09v2.83h-1.33v-4.92h1.29v0.61c0.14-0.24 0.34-0.42333 0.6-0.55s0.533-0.19 0.82-0.19c0.58 0 1.02 0.18333 1.32 0.55 0.307 0.36 0.46 0.82667 0.46 1.4v3.1h-1.33v-2.87c0-0.29333-0.077-0.53-0.23-0.71-0.147-0.18-0.373-0.27-0.68-0.27-0.28 0-0.503 0.09667-0.67 0.29s-0.25 0.43667-0.25 0.73zm6.15-3.56v1.47h0.99v1.18h-0.99v2.06c0 0.2067 0.046 0.3533 0.14 0.44 0.093 0.0867 0.24 0.13 0.44 0.13 0.18 0 0.316-0.0133 0.41-0.04v1.1c-0.194 0.08-0.444 0.12-0.75 0.12-0.48 0-0.86-0.1333-1.14-0.4-0.28-0.2733-0.42-0.6467-0.42-1.12v-2.29h-0.89v-1.18h0.25c0.246 0 0.433-0.07 0.56-0.21 0.133-0.14667 0.2-0.33667 0.2-0.57v-0.69z"/></g><path d="m331.07 214.46h1.1c0.62 0 1.13-0.193 1.53-0.58s0.6-0.947 0.6-1.68-0.2-1.293-0.6-1.68c-0.4-0.393-0.907-0.59-1.52-0.59h-1.11zm1.15 1.28h-2.53v-7.09h2.54c1.033 0 1.873 0.31701 2.52 0.95 0.653 0.633 0.98 1.5 0.98 2.6 0 1.093-0.327 1.957-0.98 2.59s-1.497 0.95-2.53 0.95001zm5.936 0h-1.33v-4.92h1.33zm-1.49-6.53c0-0.227 0.08-0.41999 0.24-0.58 0.16-0.167 0.354-0.25 0.58-0.25 0.227 0 0.42 0.08 0.58 0.24s0.24 0.357 0.24 0.59c0 0.22-0.08 0.41-0.24 0.57s-0.353 0.24001-0.58 0.24001c-0.226 0-0.42-0.08-0.58-0.24001-0.16-0.16-0.24-0.35-0.24-0.57zm5.914 1.59v1.34c-0.133-0.027-0.267-0.04-0.4-0.04-0.38 0-0.687 0.11-0.92 0.33-0.233 0.213-0.35 0.567-0.35 1.06v2.25h-1.33v-4.92h1.29v0.73c0.24-0.51301 0.707-0.77001 1.4-0.77001 0.073 0 0.177 7e-3 0.31 0.02zm1.857 1.92h2.2c-0.013-0.273-0.113-0.50299-0.3-0.69-0.18-0.187-0.447-0.28-0.8-0.28-0.32 0-0.58 0.1-0.78 0.30001-0.2 0.19999-0.307 0.423-0.32 0.66999zm2.33 1.28 1.11 0.33001c-0.133 0.453-0.397 0.827-0.79 1.12-0.387 0.293-0.87 0.44-1.45 0.44-0.707 0-1.307-0.237-1.8-0.71001-0.493-0.47999-0.74-1.12-0.74-1.92 0-0.76 0.24-1.38 0.72-1.86 0.48-0.48699 1.047-0.72999 1.7-0.72999 0.76 0 1.353 0.227 1.78 0.68 0.433 0.453 0.65 1.077 0.65 1.87 0 0.053-3e-3 0.113-0.01 0.18v0.16l-0.01 0.07h-3.52c0.013 0.32 0.14 0.587 0.38 0.8s0.527 0.32 0.86 0.32c0.567 0 0.94-0.25 1.12-0.75001zm4.437-2.1c-0.353 0-0.65 0.123-0.89 0.37001-0.24 0.247-0.36 0.583-0.36 1.01 0 0.427 0.12 0.767 0.36 1.02 0.247 0.247 0.547 0.37 0.9 0.37 0.314 0 0.564-0.08 0.75-0.24001 0.187-0.167 0.314-0.363 0.38-0.59l1.17 0.39c-0.12 0.453-0.38 0.843-0.78 1.17s-0.906 0.49-1.52 0.49c-0.733 0-1.35-0.247-1.85-0.74-0.493-0.5-0.74-1.123-0.74-1.87 0-0.753 0.244-1.377 0.73-1.87 0.494-0.493 1.1-0.74 1.82-0.74 0.627 0 1.14 0.163 1.54 0.49 0.4 0.32 0.657 0.71 0.77 1.17l-1.19 0.4c-0.16-0.553-0.523-0.83-1.09-0.83zm4.928-2.55v1.47h0.99v1.18h-0.99v2.06c0 0.207 0.047 0.35301 0.14 0.44 0.094 0.087 0.24 0.13 0.44 0.13 0.18 0 0.317-0.013 0.41-0.04v1.1c-0.193 0.08-0.443 0.12-0.75 0.12-0.48 0-0.86-0.133-1.14-0.4-0.28-0.273-0.42-0.647-0.42-1.12v-2.29h-0.89v-1.18h0.25c0.247 0 0.434-0.07 0.56-0.21 0.134-0.147 0.2-0.337 0.2-0.57v-0.69zm9.471 6.39-0.59-1.62h-2.88l-0.59 1.62h-1.46l2.72-7.09h1.6l2.7 7.09zm-2.03-5.56-0.98 2.68h1.96zm5.827 1.7h1.09c0.34 0 0.61-0.09 0.81-0.27 0.2-0.187 0.3-0.433 0.3-0.74 0-0.313-0.1-0.56-0.3-0.74-0.193-0.187-0.463-0.28-0.81-0.28h-1.09zm1.26 1.19h-1.27v2.67h-1.38v-7.09h2.65c0.694 0 1.254 0.207 1.68 0.62001 0.434 0.413 0.65 0.943 0.65 1.59 0 0.64699-0.216 1.177-0.65 1.59-0.426 0.413-0.986 0.62-1.68 0.61999zm4.785 2.67h-1.4v-7.09h1.4zm7.299 0.15c-1.02 0-1.88-0.34-2.58-1.02s-1.05-1.57-1.05-2.67c0-1.093 0.353-1.983 1.06-2.67 0.713-0.687 1.563-1.03 2.55-1.03 0.906 0 1.633 0.23 2.18 0.69 0.553 0.46 0.91 1.013 1.07 1.66l-1.3 0.41c-0.1-0.4-0.31-0.737-0.63-1.01-0.32-0.28-0.76-0.42-1.32-0.42-0.58 0-1.09 0.207-1.53 0.62-0.434 0.413-0.65 0.997-0.65 1.75 0 0.72 0.213 1.29 0.64 1.71 0.433 0.42 0.953 0.63 1.56 0.63 0.553 0 0.993-0.143 1.32-0.43 0.333-0.287 0.556-0.627 0.67-1.02l1.29 0.39c-0.074 0.287-0.194 0.567-0.36 0.84-0.16 0.273-0.37 0.53-0.63 0.77s-0.59 0.433-0.99 0.58c-0.394 0.147-0.827 0.22-1.3 0.22zm3.89-1.49c0-0.42 0.136-0.757 0.41-1.01 0.273-0.253 0.626-0.413 1.06-0.48l1.21-0.18c0.246-0.033 0.37-0.15 0.37-0.35 0-0.187-0.074-0.34-0.22-0.46-0.14-0.12-0.344-0.18-0.61-0.18-0.28 0-0.504 0.077-0.67 0.23-0.16 0.153-0.25 0.343-0.27 0.57l-1.18-0.25c0.046-0.427 0.256-0.803 0.63-1.13 0.373-0.327 0.866-0.49 1.48-0.49 0.733 0 1.273 0.177 1.62 0.53 0.346 0.347 0.52 0.793 0.52 1.34v2.42c0 0.293 0.02 0.553 0.06 0.78h-1.22c-0.034-0.147-0.05-0.343-0.05-0.59-0.314 0.487-0.797 0.73-1.45 0.73-0.507 0-0.917-0.147-1.23-0.44-0.307-0.293-0.46-0.64-0.46-1.04zm1.97 0.49c0.313 0 0.57-0.087 0.77-0.26 0.206-0.18 0.31-0.473 0.31-0.88v-0.22l-1.11 0.17c-0.407 0.06-0.61 0.267-0.61 0.62 0 0.16 0.056 0.297 0.17 0.41 0.113 0.107 0.27 0.16 0.47 0.16zm5.05 0.85h-1.33v-7.24h1.33zm2.754 0h-1.33v-7.24h1.33z" fill="#000"/><path d="m347.7 162.89c-0.966 0-1.796-0.333-2.49-1-0.686-0.667-1.03-1.567-1.03-2.7 0-0.76 0.174-1.427 0.52-2 0.347-0.573 0.784-0.997 1.31-1.27 0.527-0.28 1.09-0.42 1.69-0.42 0.8 0 1.474 0.203 2.02 0.61 0.554 0.4 0.92 0.947 1.1 1.64l-0.91 0.32c-0.133-0.533-0.39-0.943-0.77-1.23-0.38-0.293-0.86-0.44-1.44-0.44-0.693 0-1.286 0.247-1.78 0.74-0.493 0.487-0.74 1.17-0.74 2.05s0.247 1.567 0.74 2.06c0.494 0.493 1.087 0.74 1.78 0.74 0.58 0 1.064-0.153 1.45-0.46 0.387-0.313 0.657-0.727 0.81-1.24l0.87 0.32c-0.193 0.687-0.566 1.24-1.12 1.66-0.546 0.413-1.216 0.62-2.01 0.62zm5.125-1.29c0.293 0.3 0.65 0.45 1.07 0.45s0.773-0.15001 1.06-0.45c0.293-0.307 0.44-0.73 0.44-1.27 0-0.533-0.147-0.95-0.44-1.25-0.287-0.307-0.64-0.46001-1.06-0.46001s-0.777 0.153-1.07 0.46001c-0.287 0.3-0.43 0.717-0.43 1.25 0 0.53999 0.143 0.96299 0.43 1.27zm-0.7-3.09c0.467-0.487 1.057-0.73 1.77-0.73s1.3 0.243 1.76 0.73c0.467 0.48 0.7 1.087 0.7 1.82 0 0.74-0.23 1.353-0.69 1.84-0.46 0.47999-1.05 0.72-1.77 0.72s-1.31-0.24001-1.77-0.72c-0.46-0.487-0.69-1.1-0.69-1.84 0-0.73301 0.23-1.34 0.69-1.82zm6.363 4.23h-0.93v-4.81h0.9v0.64c0.146-0.253 0.353-0.447 0.62-0.58 0.266-0.133 0.546-0.2 0.84-0.2 0.313 0 0.6 0.077 0.86 0.23s0.453 0.38 0.58 0.68c0.333-0.607 0.87-0.91 1.61-0.91 0.46 0 0.85 0.157 1.17 0.47 0.326 0.313 0.49 0.767 0.49 1.36v3.12h-0.93v-3.02c0-0.333-0.087-0.6-0.26-0.8-0.167-0.2-0.42-0.3-0.76-0.3-0.327 0-0.594 0.117-0.8 0.35-0.207 0.227-0.31 0.513-0.31 0.86v2.91h-0.94v-3.02c0-0.333-0.087-0.6-0.26-0.8-0.167-0.2-0.42-0.3-0.76-0.3-0.334 0-0.604 0.113-0.81 0.34-0.207 0.227-0.31 0.52-0.31 0.88zm8.584 0h-0.94v-7.24h0.94zm2.529 0h-0.93v-4.81h0.93zm-0.95-6.15c-0.127-0.133-0.19-0.293-0.19-0.47999 0-0.18701 0.063-0.34701 0.19-0.48 0.133-0.133 0.293-0.2 0.48-0.2s0.347 0.067 0.48 0.2c0.133 0.127 0.2 0.287 0.2 0.48 0 0.187-0.067 0.347-0.2 0.47999-0.133 0.12701-0.293 0.19-0.48 0.19s-0.347-0.063-0.48-0.19zm3.489 3.37v2.78h-0.94v-4.81h0.92v0.69c0.32-0.553 0.814-0.83 1.48-0.83 0.554 0 0.977 0.177 1.27 0.53 0.3 0.353 0.45 0.81 0.45 1.37v3.05h-0.94v-2.89c0-0.807-0.373-1.21-1.12-1.21-0.353 0-0.63 0.127-0.83 0.38-0.193 0.247-0.29 0.56-0.29 0.93999zm8.986-2.03-2.05 2.03 2.09 2.78h-1.18l-1.57-2.12-0.67 0.67v1.45h-0.93v-7.24h0.93v4.56l2.08-2.13z" fill="#000"/><g fill="#5e5e5e"><path d="m396.19 261.88h1.09c0.34 0 0.61-0.09 0.81-0.27 0.2-0.187 0.3-0.433 0.3-0.74 0-0.313-0.1-0.56-0.3-0.74-0.193-0.187-0.463-0.28-0.81-0.28h-1.09zm1.26 1.19h-1.27v2.67h-1.38v-7.09h2.65c0.694 0 1.254 0.207 1.68 0.62 0.434 0.413 0.65 0.94301 0.65 1.59 0 0.64699-0.216 1.177-0.65 1.59-0.426 0.413-0.986 0.62-1.68 0.62zm6.198-2.27v1.34c-0.134-0.027-0.267-0.04-0.4-0.04-0.38 0-0.687 0.11-0.92 0.33-0.234 0.213-0.35 0.56701-0.35 1.06v2.25h-1.33v-4.92h1.29v0.73001c0.24-0.51301 0.706-0.77001 1.4-0.77001 0.073 0 0.176 7e-3 0.31 0.02zm2.206 3.51c0.247 0.247 0.544 0.37 0.89 0.37 0.347 0 0.64-0.123 0.88-0.37 0.247-0.247 0.37-0.59 0.37-1.03s-0.123-0.783-0.37-1.03c-0.24-0.247-0.533-0.37-0.88-0.37-0.346 0-0.643 0.123-0.89 0.37-0.24 0.247-0.36 0.59-0.36 1.03s0.12 0.783 0.36 1.03zm-0.96-2.9c0.494-0.493 1.11-0.74 1.85-0.74s1.354 0.247 1.84 0.74c0.494 0.493 0.74 1.117 0.74 1.87s-0.246 1.377-0.74 1.87c-0.486 0.493-1.1 0.74-1.84 0.74s-1.356-0.247-1.85-0.74c-0.486-0.493-0.73-1.117-0.73-1.87s0.244-1.377 0.73-1.87zm9.974-0.59-1.91 4.92h-1.33l-2.01-4.92h1.46l1.22 3.3 1.17-3.3zm2.139 4.92h-1.33v-4.92h1.33zm-1.49-6.53c0-0.227 0.08-0.42 0.24-0.58 0.16-0.167 0.353-0.25 0.58-0.25s0.42 0.08 0.58 0.24 0.24 0.357 0.24 0.59c0 0.22-0.08 0.41-0.24 0.57s-0.353 0.24-0.58 0.24-0.42-0.08-0.58-0.24-0.24-0.35-0.24-0.57zm7.604-0.71v6.35c0 0.327 0.013 0.623 0.04 0.89h-1.27c-0.033-0.167-0.05-0.357-0.05-0.57-0.113 0.207-0.293 0.373-0.54 0.5-0.24 0.127-0.52 0.19-0.84 0.19-0.7 0-1.277-0.243-1.73-0.73-0.447-0.493-0.67-1.113-0.67-1.86 0-0.727 0.22-1.337 0.66-1.83 0.447-0.493 1.013-0.74 1.7-0.74 0.707 0 1.17 0.203 1.39 0.61v-2.81zm-3.72 4.77c0 0.433 0.113 0.777 0.34 1.03 0.227 0.247 0.52 0.37 0.88 0.37 0.353 0 0.643-0.127 0.87-0.38s0.34-0.597 0.34-1.03c0-0.427-0.113-0.76-0.34-1-0.227-0.247-0.517-0.37-0.87-0.37s-0.647 0.123-0.88 0.37c-0.227 0.247-0.34 0.583-0.34 1.01zm6.133-0.55h2.2c-0.014-0.273-0.114-0.503-0.3-0.69-0.18-0.187-0.447-0.28-0.8-0.28-0.32 0-0.58 0.1-0.78 0.3s-0.307 0.423-0.32 0.67zm2.33 1.28 1.11 0.33c-0.134 0.453-0.397 0.827-0.79 1.12-0.387 0.293-0.87 0.44-1.45 0.44-0.707 0-1.307-0.237-1.8-0.71-0.494-0.48-0.74-1.12-0.74-1.92 0-0.76 0.24-1.38 0.72-1.86 0.48-0.487 1.046-0.73 1.7-0.73 0.76 0 1.353 0.227 1.78 0.68 0.433 0.453 0.65 1.077 0.65 1.87 0 0.053-4e-3 0.113-0.01 0.18v0.16l-0.01 0.07h-3.52c0.013 0.32 0.14 0.587 0.38 0.8s0.526 0.32 0.86 0.32c0.566 0 0.94-0.25 1.12-0.75zm5.227-3.2v1.34c-0.133-0.027-0.267-0.04-0.4-0.04-0.38 0-0.687 0.11-0.92 0.33-0.233 0.213-0.35 0.567-0.35 1.06v2.25h-1.33v-4.92h1.29v0.73001c0.24-0.51301 0.707-0.77001 1.4-0.77001 0.073 0 0.177 7e-3 0.31 0.02zm8.287 4.94-0.59-1.62h-2.88l-0.59 1.62h-1.46l2.72-7.09h1.6l2.7 7.09zm-2.03-5.56-0.98 2.68h1.96zm5.827 1.7h1.09c0.34 0 0.61-0.09 0.81-0.27 0.2-0.187 0.3-0.433 0.3-0.74 0-0.313-0.1-0.56-0.3-0.74-0.194-0.187-0.464-0.28-0.81-0.28h-1.09zm1.26 1.19h-1.27v2.67h-1.38v-7.09h2.65c0.693 0 1.253 0.207 1.68 0.62 0.433 0.413 0.65 0.94301 0.65 1.59 0 0.64699-0.217 1.177-0.65 1.59-0.427 0.413-0.987 0.62-1.68 0.62zm4.785 2.67h-1.4v-7.09h1.4z"/><path d="m146.37 265.9c-0.787 0-1.437-0.233-1.95-0.7-0.513-0.473-0.77-1.13-0.77-1.97v-4.58h1.38v4.48c0 0.46 0.117 0.813 0.35 1.06 0.24 0.24 0.57 0.36001 0.99 0.36001 0.427 0 0.757-0.12001 0.99-0.36001 0.24-0.247 0.36-0.6 0.36-1.06v-4.48h1.38v4.58c0 0.83999-0.257 1.497-0.77 1.97-0.513 0.46701-1.167 0.7-1.96 0.7zm3.734-1.53 1.14-0.25c0.014 0.213 0.097 0.393 0.25 0.54 0.16 0.14 0.377 0.21 0.65 0.21 0.207 0 0.367-0.047 0.48-0.13999 0.114-0.093 0.17-0.21001 0.17-0.35001 0-0.247-0.176-0.40699-0.53-0.47999l-0.65-0.15001c-0.46-0.1-0.806-0.27999-1.04-0.53999-0.226-0.26-0.34-0.57-0.34-0.93 0-0.447 0.174-0.827 0.52-1.14 0.354-0.313 0.794-0.47 1.32-0.47 0.334 0 0.627 0.05 0.88 0.15 0.254 0.093 0.45 0.217 0.59 0.37 0.14 0.147 0.247 0.297 0.32 0.45 0.074 0.15299 0.12 0.303 0.14 0.45l-1.11 0.25c-0.026-0.173-0.106-0.327-0.24-0.46001-0.126-0.13299-0.316-0.2-0.57-0.2-0.173 0-0.323 0.047-0.45 0.14-0.12 0.093-0.18 0.21001-0.18 0.35001 0 0.24 0.15 0.387 0.45 0.44l0.7 0.14999c0.474 0.10001 0.834 0.283 1.08 0.55 0.254 0.267 0.38 0.587 0.38 0.96001 0 0.44-0.166 0.82-0.5 1.14-0.333 0.32-0.803 0.47999-1.41 0.47999-0.346 0-0.656-0.05-0.93-0.14999-0.273-0.10701-0.486-0.24001-0.64-0.40001-0.146-0.167-0.26-0.33-0.34-0.49-0.073-0.167-0.12-0.327-0.14-0.48zm5.98-1.65h2.2c-0.013-0.273-0.113-0.503-0.3-0.69-0.18-0.187-0.446-0.28-0.8-0.28-0.32 0-0.58 0.1-0.78 0.30001-0.2 0.19999-0.306 0.423-0.32 0.66999zm2.33 1.28 1.11 0.33c-0.133 0.45301-0.396 0.827-0.79 1.12-0.386 0.293-0.87 0.44-1.45 0.44-0.706 0-1.306-0.23699-1.8-0.71-0.493-0.48-0.74-1.12-0.74-1.92 0-0.76 0.24-1.38 0.72-1.86 0.48-0.48699 1.047-0.72999 1.7-0.72999 0.76 0 1.354 0.22699 1.78 0.68 0.434 0.45299 0.65 1.077 0.65 1.87 0 0.053-3e-3 0.113-0.01 0.18v0.15999l-0.01 0.07h-3.52c0.014 0.32 0.14 0.587 0.38 0.8 0.24 0.21301 0.527 0.32 0.86 0.32 0.567 0 0.94-0.25 1.12-0.75zm6.468-3.55c-0.44 0.407-0.66 0.987-0.66 1.74s0.22 1.337 0.66 1.75c0.44 0.407 0.957 0.61001 1.55 0.61001 0.6 0 1.12-0.20301 1.56-0.61001 0.44-0.413 0.66-0.997 0.66-1.75 0-0.75299-0.22-1.333-0.66-1.74-0.44-0.413-0.96-0.62-1.56-0.62-0.593 0-1.11 0.207-1.55 0.62zm-2.09 1.75c0-1.107 0.357-2 1.07-2.68 0.714-0.68 1.57-1.02 2.57-1.02 1.007 0 1.867 0.34 2.58 1.02 0.714 0.68 1.07 1.573 1.07 2.68 0 1.1-0.356 1.99-1.07 2.67-0.713 0.68-1.573 1.02-2.58 1.02-1 0-1.856-0.34-2.57-1.02-0.713-0.68-1.07-1.57-1.07-2.67zm9.717 0.71v2.83h-1.33v-4.92h1.29v0.61c0.14-0.24 0.34-0.423 0.6-0.55s0.533-0.19 0.82-0.19c0.58 0 1.02 0.183 1.32 0.55001 0.306 0.36 0.46 0.82699 0.46 1.4v3.1h-1.33v-2.87c0-0.293-0.077-0.52999-0.23-0.70999-0.147-0.18-0.374-0.27001-0.68-0.27001-0.28 0-0.504 0.097-0.67 0.29-0.167 0.193-0.25 0.43701-0.25 0.73zm5.48-0.19h2.2c-0.014-0.273-0.114-0.503-0.3-0.69-0.18-0.187-0.447-0.28-0.8-0.28-0.32 0-0.58 0.1-0.78 0.30001-0.2 0.19999-0.307 0.423-0.32 0.66999zm2.33 1.28 1.11 0.33c-0.134 0.45301-0.397 0.827-0.79 1.12-0.387 0.293-0.87 0.44-1.45 0.44-0.707 0-1.307-0.23699-1.8-0.71-0.494-0.48-0.74-1.12-0.74-1.92 0-0.76 0.24-1.38 0.72-1.86 0.48-0.48699 1.046-0.72999 1.7-0.72999 0.76 0 1.353 0.22699 1.78 0.68 0.433 0.45299 0.65 1.077 0.65 1.87 0 0.053-4e-3 0.113-0.01 0.18v0.15999l-0.01 0.07h-3.52c0.013 0.32 0.14 0.587 0.38 0.8 0.24 0.21301 0.526 0.32 0.86 0.32 0.566 0 0.94-0.25 1.12-0.75zm7.097-3.66-1.24 0.38c-0.047-0.253-0.173-0.483-0.38-0.69s-0.51-0.31-0.91-0.31c-0.327 0-0.593 0.09-0.8 0.27001-0.207 0.173-0.31 0.38299-0.31 0.62999 0 0.433 0.257 0.7 0.77 0.80001l0.99 0.19c0.627 0.12 1.113 0.37 1.46 0.75s0.52 0.827 0.52 1.34c0 0.587-0.233 1.1-0.7 1.54-0.46 0.43299-1.08 0.64999-1.86 0.64999-0.447 0-0.85-0.067-1.21-0.2-0.36-0.13299-0.65-0.31-0.87-0.52999-0.22-0.22701-0.393-0.46301-0.52-0.71001-0.12-0.253-0.193-0.51299-0.22-0.77999l1.28-0.34001c0.033 0.38 0.18 0.697 0.44 0.95 0.267 0.253 0.637 0.38 1.11 0.38 0.36 0 0.64-0.08 0.84-0.24 0.207-0.16 0.31-0.37 0.31-0.63 0-0.207-0.077-0.383-0.23-0.53-0.147-0.153-0.357-0.257-0.63-0.31l-0.99-0.2c-0.573-0.12-1.027-0.357-1.36-0.71s-0.5-0.793-0.5-1.32c0-0.627 0.24-1.153 0.72-1.58 0.487-0.427 1.07-0.64 1.75-0.64 0.407 0 0.77 0.057 1.09 0.17s0.577 0.267 0.77 0.46c0.193 0.187 0.343 0.38 0.45 0.58s0.183 0.41 0.23 0.63zm2.645 4.12h1.1c0.62 0 1.13-0.193 1.53-0.58s0.6-0.947 0.6-1.68-0.2-1.293-0.6-1.68c-0.4-0.393-0.907-0.59-1.52-0.59h-1.11zm1.15 1.28h-2.53v-7.09h2.54c1.033 0 1.873 0.317 2.52 0.95 0.653 0.633 0.98 1.5 0.98 2.6 0 1.093-0.327 1.957-0.98 2.59s-1.497 0.95-2.53 0.95001zm9.026 0-2.06-2.94-0.88 0.96999v1.97h-1.38v-7.09h1.38v3.21l2.84-3.21h1.81l-2.81 3.09 2.83 4z"/><path d="m10.185 265.74h-1.4v-7.09h1.4zm2.8476-2.83v2.83h-1.33v-4.92h1.29v0.61c0.14-0.24 0.34-0.423 0.6-0.55s0.53333-0.19 0.82-0.19c0.58002 0 1.02 0.183 1.32 0.55001 0.3066 0.36 0.46 0.82699 0.46 1.4v3.1h-1.33v-2.87c0-0.293-0.0767-0.52999-0.23-0.70999-0.14669-0.18-0.37335-0.27001-0.68002-0.27001-0.28 0-0.50333 0.097-0.67 0.29s-0.25 0.43701-0.25 0.73zm4.0898 1.46 1.14-0.25c0.0134 0.213 0.0967 0.393 0.25 0.54 0.16 0.14 0.3767 0.21 0.65 0.21 0.2067 0 0.3667-0.047 0.48-0.13999 0.1134-0.093 0.17-0.21001 0.17-0.35001 0-0.247-0.1766-0.40699-0.53-0.47999l-0.65-0.15001c-0.46-0.1-0.8066-0.27999-1.04-0.53999-0.2266-0.26-0.34-0.57-0.34-0.93 0-0.447 0.1734-0.827 0.52-1.14 0.3534-0.313 0.7934-0.47 1.32-0.47 0.3334 0 0.6267 0.05 0.88 0.15 0.2534 0.093 0.45 0.217 0.59 0.37 0.14 0.147 0.2467 0.297 0.32 0.45 0.0734 0.15299 0.12 0.303 0.14 0.45l-1.11 0.25c-0.0266-0.173-0.1066-0.327-0.24-0.46001-0.1266-0.13299-0.3166-0.2-0.57-0.2-0.1733 0-0.3233 0.047-0.45 0.14-0.12 0.093-0.18 0.21001-0.18 0.35001 0 0.24 0.15 0.387 0.45 0.44l0.7 0.14999c0.4734 0.10001 0.8334 0.283 1.08 0.55 0.2534 0.267 0.38 0.587 0.38 0.96001 0 0.44-0.1666 0.82-0.5 1.14-0.3333 0.32-0.8033 0.47999-1.41 0.47999-0.3466 0-0.6566-0.05-0.93-0.14999-0.2733-0.10701-0.4866-0.24001-0.64-0.40001-0.1466-0.167-0.26-0.33-0.34-0.49-0.0733-0.167-0.12-0.327-0.14-0.48zm6.6694-5.02v1.47h0.99v1.18h-0.99v2.06c0 0.207 0.0467 0.35301 0.14 0.44 0.0933 0.087 0.24 0.13 0.44 0.13 0.18 0 0.3167-0.013 0.41-0.04v1.1c-0.1933 0.08-0.4433 0.12-0.75 0.12-0.48 0-0.86-0.133-1.14-0.4-0.28-0.273-0.42-0.647-0.42-1.12v-2.29h-0.89v-1.18h0.25c0.2467 0 0.4333-0.07 0.56-0.21 0.1333-0.147 0.2-0.337 0.2-0.57v-0.69zm1.8491 5.05c0-0.41999 0.1366-0.757 0.41-1.01 0.2733-0.253 0.6266-0.413 1.06-0.47999l1.21-0.18c0.2466-0.033 0.37-0.15001 0.37-0.35001 0-0.187-0.0734-0.33999-0.22-0.45999-0.14-0.12-0.3434-0.18-0.61-0.18-0.28 0-0.5034 0.077-0.67 0.22999-0.16 0.153-0.25 0.343-0.27 0.57l-1.18-0.25c0.0466-0.427 0.2566-0.803 0.63-1.13 0.3733-0.327 0.8666-0.49 1.48-0.49 0.7333 0 1.2733 0.177 1.62 0.53 0.3466 0.347 0.52 0.793 0.52 1.34v2.42c0 0.293 0.02 0.553 0.06 0.78h-1.22c-0.0334-0.147-0.05-0.343-0.05-0.59-0.3134 0.487-0.7967 0.73-1.45 0.73-0.5067 0-0.9167-0.147-1.23-0.44-0.3067-0.293-0.46-0.64-0.46-1.04zm1.97 0.49c0.3133 0 0.57-0.087 0.77-0.26 0.2066-0.18 0.31-0.473 0.31-0.88v-0.21999l-1.11 0.16999c-0.4067 0.06-0.61 0.267-0.61 0.62 0 0.16001 0.0566 0.29701 0.17 0.41001 0.1133 0.10699 0.27 0.15999 0.47 0.15999zm5.0506 0.85001h-1.33v-7.24h1.33zm2.7539 0h-1.33v-7.24h1.33zm7.1146 0c-0.0267-0.13301-0.04-0.31001-0.04-0.53001-0.1267 0.22-0.3167 0.387-0.57 0.5-0.2467 0.107-0.51 0.16-0.79 0.16-0.58 0-1.0367-0.18299-1.37-0.55-0.3333-0.373-0.5-0.837-0.5-1.39v-3.11h1.33v2.84c0 0.293 0.0767 0.533 0.23 0.72 0.1533 0.18 0.3767 0.27 0.67 0.27 0.2867 0 0.5133-0.087 0.68-0.26 0.1667-0.18 0.25-0.41699 0.25-0.71v-2.86h1.33v4.03c0 0.313 0.0167 0.61 0.05 0.89zm2.2194-1.37 1.14-0.25c0.0133 0.213 0.0966 0.393 0.25 0.54 0.16 0.14 0.3766 0.21 0.65 0.21 0.2066 0 0.3666-0.047 0.48-0.13999 0.1133-0.093 0.17-0.21001 0.17-0.35001 0-0.247-0.1767-0.40699-0.53-0.47999l-0.65-0.15001c-0.46-0.1-0.8067-0.27999-1.04-0.53999-0.2267-0.26-0.34-0.57-0.34-0.93 0-0.447 0.1733-0.827 0.52-1.14 0.3533-0.313 0.7933-0.47 1.32-0.47 0.3333 0 0.6266 0.05 0.88 0.15 0.2533 0.093 0.45 0.217 0.59 0.37 0.14 0.147 0.2466 0.297 0.32 0.45 0.0733 0.15299 0.12 0.303 0.14 0.45l-1.11 0.25c-0.0267-0.173-0.1067-0.327-0.24-0.46001-0.1267-0.13299-0.3167-0.2-0.57-0.2-0.1734 0-0.3234 0.047-0.45 0.14-0.12 0.093-0.18 0.21001-0.18 0.35001 0 0.24 0.15 0.387 0.45 0.44l0.7 0.14999c0.4733 0.10001 0.8333 0.283 1.08 0.55 0.2533 0.267 0.38 0.587 0.38 0.96001 0 0.44-0.1667 0.82-0.5 1.14-0.3334 0.32-0.8034 0.47999-1.41 0.47999-0.3467 0-0.6567-0.05-0.93-0.14999-0.2734-0.10701-0.4867-0.24001-0.64-0.40001-0.1467-0.167-0.26-0.33-0.34-0.49-0.0734-0.167-0.12-0.327-0.14-0.48zm5.9798-1.65h2.2c-0.0133-0.273-0.1133-0.503-0.3-0.69-0.18-0.187-0.4466-0.28-0.8-0.28-0.32 0-0.58 0.1-0.78 0.30001-0.2 0.19999-0.3066 0.423-0.32 0.66999zm2.33 1.28 1.11 0.33c-0.1333 0.45301-0.3966 0.827-0.79 1.12-0.3866 0.293-0.87 0.44-1.45 0.44-0.7066 0-1.3066-0.23699-1.8-0.71-0.4933-0.48-0.74-1.12-0.74-1.92 0-0.76 0.24-1.38 0.72-1.86 0.48-0.48699 1.0467-0.72999 1.7-0.72999 0.76 0 1.3534 0.22699 1.78 0.68 0.4334 0.45299 0.65 1.077 0.65 1.87 0 0.053-0.0033 0.113-0.01 0.18v0.15999l-0.01 0.07h-3.52c0.0134 0.32 0.14 0.587 0.38 0.8 0.24 0.21301 0.5267 0.32 0.86 0.32 0.5667 0 0.94-0.25 1.12-0.75zm6.9081-2.1c-0.3534 0-0.65 0.123-0.89 0.37s-0.36 0.58301-0.36 1.01c0 0.427 0.12 0.767 0.36 1.02 0.2466 0.247 0.5466 0.37 0.9 0.37 0.3133 0 0.5633-0.08 0.75-0.24001 0.1866-0.167 0.3133-0.363 0.38-0.59l1.17 0.39c-0.12 0.453-0.38 0.843-0.78 1.17s-0.9067 0.49-1.52 0.49c-0.7334 0-1.35-0.247-1.85-0.74-0.4934-0.5-0.74-1.123-0.74-1.87 0-0.753 0.2433-1.377 0.73-1.87 0.4933-0.493 1.1-0.74 1.82-0.74 0.6266 0 1.14 0.163 1.54 0.49 0.4 0.32 0.6566 0.71 0.77 1.17l-1.19 0.4c-0.16-0.553-0.5234-0.83-1.09-0.83zm2.9685 2.5c0-0.41999 0.1367-0.757 0.41-1.01s0.6267-0.413 1.06-0.47999l1.21-0.18c0.2467-0.033 0.37-0.15001 0.37-0.35001 0-0.187-0.0733-0.33999-0.22-0.45999-0.14-0.12-0.3433-0.18-0.61-0.18-0.28 0-0.5033 0.077-0.67 0.22999-0.16 0.153-0.25 0.343-0.27 0.57l-1.18-0.25c0.0467-0.427 0.2567-0.803 0.63-1.13s0.8667-0.49 1.48-0.49c0.7333 0 1.2733 0.177 1.62 0.53 0.3467 0.347 0.52 0.793 0.52 1.34v2.42c0 0.293 0.02 0.553 0.06 0.78h-1.22c-0.0333-0.147-0.05-0.343-0.05-0.59-0.3133 0.487-0.7967 0.73-1.45 0.73-0.5067 0-0.9167-0.147-1.23-0.44-0.3067-0.293-0.46-0.64-0.46-1.04zm1.97 0.49c0.3133 0 0.57-0.087 0.77-0.26 0.2067-0.18 0.31-0.473 0.31-0.88v-0.21999l-1.11 0.16999c-0.4067 0.06-0.61 0.267-0.61 0.62 0 0.16001 0.0567 0.29701 0.17 0.41001 0.1133 0.10699 0.27 0.15999 0.47 0.15999zm3.3006-0.52 1.14-0.25c0.0133 0.213 0.0967 0.393 0.25 0.54 0.16 0.14 0.3767 0.21 0.65 0.21 0.2067 0 0.3667-0.047 0.48-0.13999 0.1133-0.093 0.17-0.21001 0.17-0.35001 0-0.247-0.1767-0.40699-0.53-0.47999l-0.65-0.15001c-0.46-0.1-0.8067-0.27999-1.04-0.53999-0.2267-0.26-0.34-0.57-0.34-0.93 0-0.447 0.1733-0.827 0.52-1.14 0.3533-0.313 0.7933-0.47 1.32-0.47 0.3333 0 0.6267 0.05 0.88 0.15 0.2533 0.093 0.45 0.217 0.59 0.37 0.14 0.147 0.2467 0.297 0.32 0.45 0.0733 0.15299 0.12 0.303 0.14 0.45l-1.11 0.25c-0.0267-0.173-0.1067-0.327-0.24-0.46001-0.1267-0.13299-0.3167-0.2-0.57-0.2-0.1733 0-0.3233 0.047-0.45 0.14-0.12 0.093-0.18 0.21001-0.18 0.35001 0 0.24 0.15 0.387 0.45 0.44l0.7 0.14999c0.4733 0.10001 0.8333 0.283 1.08 0.55 0.2533 0.267 0.38 0.587 0.38 0.96001 0 0.44-0.1667 0.82-0.5 1.14s-0.8033 0.47999-1.41 0.47999c-0.3467 0-0.6567-0.05-0.93-0.14999-0.2733-0.10701-0.4867-0.24001-0.64-0.40001-0.1467-0.167-0.26-0.33-0.34-0.49-0.0733-0.167-0.12-0.327-0.14-0.48zm5.9799-1.65h2.2c-0.0134-0.273-0.1134-0.503-0.3-0.69-0.18-0.187-0.4467-0.28-0.8-0.28-0.32 0-0.58 0.1-0.78 0.30001-0.2 0.19999-0.3067 0.423-0.32 0.66999zm2.33 1.28 1.11 0.33c-0.1334 0.45301-0.3967 0.827-0.79 1.12-0.3867 0.293-0.87 0.44-1.45 0.44-0.7067 0-1.3067-0.23699-1.8-0.71-0.4934-0.48-0.74-1.12-0.74-1.92 0-0.76 0.24-1.38 0.72-1.86 0.48-0.48699 1.0466-0.72999 1.7-0.72999 0.76 0 1.3533 0.22699 1.78 0.68 0.4333 0.45299 0.65 1.077 0.65 1.87 0 0.053-0.0034 0.113-0.01 0.18v0.15999l-0.01 0.07h-3.52c0.0133 0.32 0.14 0.587 0.38 0.8 0.24 0.21301 0.5266 0.32 0.86 0.32 0.5666 0 0.94-0.25 1.12-0.75z"/></g></svg>
